<svg xmlns="http://www.w3.org/2000/svg" xml:space="preserve" style="fill-rule:evenodd;clip-rule:evenodd;stroke-linecap:round;stroke-linejoin:round;stroke-miterlimit:1.5" viewBox="0 0 400 297"><path d="M0 0h400v297H0z" style="fill:none"/><clipPath id="a"><path d="M0 0h400v297H0z"/></clipPath><g clip-path="url(#a)"><text x="14.658" y="34.816" style="font-family:&quot;Arial-BoldMT&quot;,&quot;Arial&quot;,sans-serif;font-weight:700;font-size:20px">Jane Smith</text><text x="14.392" y="166.786" style="font-family:&quot;Arial-BoldMT&quot;,&quot;Arial&quot;,sans-serif;font-weight:700;font-size:16px">Status history</text><text x="14.303" y="54.786" style="font-family:&quot;ArialMT&quot;,&quot;Arial&quot;,sans-serif;font-size:14px">saw a cute frog near the lake.</text><text x="430.43" y="169.786" style="font-family:&quot;Arial-BoldMT&quot;,&quot;Arial&quot;,sans-serif;font-weight:700;font-size:14px" transform="translate(-415.693 26)">Jane</text><text x="466.229" y="169.786" style="font-family:&quot;ArialMT&quot;,&quot;Arial&quot;,sans-serif;font-size:14px" transform="translate(-415.693 26)">saw a cute frog near the lake.</text><text x="430.43" y="169.786" style="font-family:&quot;ArialMT&quot;,&quot;Arial&quot;,sans-serif;font-size:11px;fill:gray" transform="translate(-416.127 -97)">Updated today at 14:27</text><text x="547.853" y="169.786" style="font-family:&quot;ArialMT&quot;,&quot;Arial&quot;,sans-serif;font-size:11px" transform="translate(-416.127 -97)">|</text><text x="553.766" y="169.786" style="font-family:&quot;ArialMT&quot;,&quot;Arial&quot;,sans-serif;font-size:11px;fill:#00f" transform="translate(-416.127 -97)">view history</text><text x="614.282" y="169.786" style="font-family:&quot;ArialMT&quot;,&quot;Arial&quot;,sans-serif;font-size:11px" transform="translate(-416.127 -97)">|</text><text x="620.196" y="169.786" style="font-family:&quot;ArialMT&quot;,&quot;Arial&quot;,sans-serif;font-size:11px;fill:#00f" transform="translate(-416.127 -97)">update</text><path d="M553.766 170.952h57.46v.806h-57.46zM620.196 170.952h33.645v.806h-33.645z" style="fill:#00f" transform="translate(-416.127 -97)"/><text x="430.43" y="169.786" style="font-family:&quot;ArialMT&quot;,&quot;Arial&quot;,sans-serif;font-size:11px;fill:gray" transform="translate(-416.127 42.955)">today at 14:27</text><text x="503.208" y="169.786" style="font-family:&quot;ArialMT&quot;,&quot;Arial&quot;,sans-serif;font-size:11px" transform="translate(-416.127 42.955)">|</text><text x="509.122" y="169.786" style="font-family:&quot;ArialMT&quot;,&quot;Arial&quot;,sans-serif;font-size:11px;fill:#00f" transform="translate(-416.127 42.955)">delete</text><path d="M509.122 170.952h29.971v.806h-29.971z" style="fill:#00f" transform="translate(-416.127 42.955)"/><text x="430.43" y="169.786" style="font-family:&quot;Arial-BoldMT&quot;,&quot;Arial&quot;,sans-serif;font-weight:700;font-size:14px" transform="translate(-415.693 67)">Jane</text><text x="466.229" y="169.786" style="font-family:&quot;ArialMT&quot;,&quot;Arial&quot;,sans-serif;font-size:14px" transform="translate(-415.693 67)">will go touch some grass today<tspan x="656.617px 660.507px 664.144px 672.695px" y="169.786px 169.786px 169.786px 169.786px">. Th</tspan>e weather is nice.</text><text x="430.43" y="169.786" style="font-family:&quot;ArialMT&quot;,&quot;Arial&quot;,sans-serif;font-size:11px;fill:gray" transform="translate(-416.127 83.955)">today at 10:12</text><text x="503.208" y="169.786" style="font-family:&quot;ArialMT&quot;,&quot;Arial&quot;,sans-serif;font-size:11px" transform="translate(-416.127 83.955)">|</text><text x="509.122" y="169.786" style="font-family:&quot;ArialMT&quot;,&quot;Arial&quot;,sans-serif;font-size:11px;fill:#00f" transform="translate(-416.127 83.955)">delete</text><path d="M509.122 170.952h29.971v.806h-29.971z" style="fill:#00f" transform="translate(-416.127 83.955)"/><path d="M164.333 69.94h17.834v30.406H200l-26.75 26.75-26.75-26.75h17.833z" style="fill-opacity:.25"/><path d="M14.733 172.5H298" style="fill:none;stroke:gray;stroke-width:2px"/><text x="1067.61" y="170.496" style="font-family:&quot;ArialMT&quot;,&quot;Arial&quot;,sans-serif;font-size:16px" transform="translate(-817.43 -3.858)">1</text><text x="1080.95" y="170.496" style="font-family:&quot;ArialMT&quot;,&quot;Arial&quot;,sans-serif;font-size:16px;fill:#00f" transform="translate(-817.43 -3.858)">2</text><text x="1094.3" y="170.496" style="font-family:&quot;ArialMT&quot;,&quot;Arial&quot;,sans-serif;font-size:16px;fill:#00f" transform="translate(-817.43 -3.858)">3</text><text x="1107.64" y="170.496" style="font-family:&quot;ArialMT&quot;,&quot;Arial&quot;,sans-serif;font-size:16px;fill:#00f" transform="translate(-817.43 -3.858)">»</text><path d="M1080.95 172.191h8.898v1.172h-8.898zM1094.3 172.191h8.898v1.172h-8.898zM1107.64 172.191h8.898v1.172h-8.898z" style="fill:#00f" transform="translate(-817.43 -3.858)"/><text x="430.43" y="169.786" style="font-family:&quot;Arial-BoldMT&quot;,&quot;Arial&quot;,sans-serif;font-weight:700;font-size:14px" transform="translate(-415.693 111)">Jane</text><text x="466.229" y="169.786" style="font-family:&quot;ArialMT&quot;,&quot;Arial&quot;,sans-serif;font-size:14px" transform="translate(-415.693 111)">is excited about the future of decentralized social media.</text><text x="430.43" y="169.786" style="font-family:&quot;ArialMT&quot;,&quot;Arial&quot;,sans-serif;font-size:11px;fill:gray" transform="translate(-416.127 127.955)">2 May at 19:43</text><text x="506.253" y="169.786" style="font-family:&quot;ArialMT&quot;,&quot;Arial&quot;,sans-serif;font-size:11px" transform="translate(-416.127 127.955)">|</text><text x="512.167" y="169.786" style="font-family:&quot;ArialMT&quot;,&quot;Arial&quot;,sans-serif;font-size:11px;fill:#00f" transform="translate(-416.127 127.955)">delete</text><path d="M512.167 170.952h29.971v.806h-29.971z" style="fill:#00f" transform="translate(-416.127 127.955)"/></g></svg>