<svg xmlns="http://www.w3.org/2000/svg" xml:space="preserve" style="fill-rule:evenodd;clip-rule:evenodd;stroke-linejoin:round;stroke-miterlimit:2" viewBox="0 0 300 200"><path d="M0 0h300v200H0z" style="fill:#fff"/><path d="M132 94.5c0-16.557-13.443-30-30-30H42c-16.557 0-30 13.443-30 30v60c0 16.557 13.443 30 30 30h60c16.557 0 30-13.443 30-30zm-2 0v60c0 15.454-12.546 28-28 28H42c-15.454 0-28-12.546-28-28v-60c0-15.454 12.546-28 28-28h60c15.454 0 28 12.546 28 28"/><path d="M72.5 88.5C85.47 88.5 96 99.03 96 112s-10.53 23.5-23.5 23.5S49 124.97 49 112s10.53-23.5 23.5-23.5m0 2c11.866 0 21.5 9.634 21.5 21.5s-9.634 21.5-21.5 21.5S51 123.866 51 112s9.634-21.5 21.5-21.5"/><path d="M72.5 88.5C85.47 88.5 96 99.03 96 112s-10.53 23.5-23.5 23.5S49 124.97 49 112s10.53-23.5 23.5-23.5m0 2c11.866 0 21.5 9.634 21.5 21.5s-9.634 21.5-21.5 21.5S51 123.866 51 112s9.634-21.5 21.5-21.5M24.915 179.137C30.754 156.267 49.863 139.5 72.5 139.5c22.427 0 41.39 16.456 47.436 39-4.986 3.778-11.204 6-17.936 6H42a29.7 29.7 0 0 1-17.085-5.363m2.305-.872C33.225 157 51.212 141.5 72.5 141.5c21.097 0 38.952 15.224 45.132 36.195-4.452 3.041-9.838 4.805-15.632 4.805H42a27.73 27.73 0 0 1-14.78-4.234z"/><path d="M165 36c0-12.97-10.53-23.5-23.5-23.5h-106C22.53 12.5 12 23.03 12 36s10.53 23.5 23.5 23.5h2.753l21.965 27-6.661-27H141.5c12.97 0 23.5-10.53 23.5-23.5" style="fill:#fff"/><path d="M165 36c0-12.97-10.53-23.5-23.5-23.5h-106C22.53 12.5 12 23.03 12 36s10.53 23.5 23.5 23.5h2.753l21.965 27-6.661-27H141.5c12.97 0 23.5-10.53 23.5-23.5m-2 0c0 11.866-9.634 21.5-21.5 21.5H53.557a2 2 0 0 0-1.942 2.479l4.524 18.338-16.335-20.079a2 2 0 0 0-1.551-.738H35.5C23.634 57.5 14 47.866 14 36s9.634-21.5 21.5-21.5h106c11.866 0 21.5 9.634 21.5 21.5"/><text x="143.658" y="149.816" style="font-family:&quot;Arial-BoldMT&quot;,&quot;Arial&quot;,sans-serif;font-weight:700;font-size:20px">John <tspan x="196.246px 210.689px" y="149.816px 149.816px">Ap</tspan>pleseed</text><text x="144.608" y="173.57" style="font-family:&quot;ArialMT&quot;,&quot;Arial&quot;,sans-serif;font-size:12px;fill:gray">@john@example.social</text><text x="23.613" y="38.751" style="font-family:&quot;ArialMT&quot;,&quot;Arial&quot;,sans-serif;font-size:12px">Fediverse will prevail</text></svg>