<svg xmlns="http://www.w3.org/2000/svg" xml:space="preserve" style="fill-rule:evenodd;clip-rule:evenodd;stroke-linecap:round;stroke-linejoin:round;stroke-miterlimit:1.5" viewBox="0 0 400 381"><path d="M0 0h400v381H0z" style="fill:none"/><path d="M389 42.5c0-16.557-13.443-30-30-30H44c-16.557 0-30 13.443-30 30V336c0 16.557 13.443 30 30 30h315c16.557 0 30-13.443 30-30z" style="fill:#fff"/><path d="M389 42.5c0-16.557-13.443-30-30-30H44c-16.557 0-30 13.443-30 30V336c0 16.557 13.443 30 30 30h315c16.557 0 30-13.443 30-30zm-2 0V336c0 15.454-12.546 28-28 28H44c-15.454 0-28-12.546-28-28V42.5c0-15.454 12.546-28 28-28h315c15.454 0 28 12.546 28 28"/><text x="450.422" y="196.861" style="font-family:&quot;ArialMT&quot;,&quot;Arial&quot;,sans-serif;font-size:14px" transform="translate(-379)">Never</text><text x="450.422" y="225.777" style="font-family:&quot;ArialMT&quot;,&quot;Arial&quot;,sans-serif;font-size:14px" transform="translate(-379)">After 1 hour</text><text x="450.422" y="254.693" style="font-family:&quot;ArialMT&quot;,&quot;Arial&quot;,sans-serif;font-size:14px" transform="translate(-379)">After 12 hours</text><text x="450.422" y="283.609" style="font-family:&quot;ArialMT&quot;,&quot;Arial&quot;,sans-serif;font-size:14px" transform="translate(-379)">Next Monday</text><circle cx="54.929" cy="191.5" r="11.5" style="fill:#fff"/><path d="M54.929 180c6.347 0 11.5 5.153 11.5 11.5s-5.153 11.5-11.5 11.5-11.5-5.153-11.5-11.5 5.153-11.5 11.5-11.5m0 2c5.243 0 9.5 4.257 9.5 9.5s-4.257 9.5-9.5 9.5-9.5-4.257-9.5-9.5 4.257-9.5 9.5-9.5"/><circle cx="54.929" cy="221.5" r="11.5" style="fill:#fff"/><path d="M54.929 210c6.347 0 11.5 5.153 11.5 11.5s-5.153 11.5-11.5 11.5-11.5-5.153-11.5-11.5 5.153-11.5 11.5-11.5m0 2c5.243 0 9.5 4.257 9.5 9.5s-4.257 9.5-9.5 9.5-9.5-4.257-9.5-9.5 4.257-9.5 9.5-9.5"/><circle cx="54.929" cy="249.5" r="11.5" style="fill:#fff"/><path d="M54.929 238c6.347 0 11.5 5.153 11.5 11.5s-5.153 11.5-11.5 11.5-11.5-5.153-11.5-11.5 5.153-11.5 11.5-11.5m0 2c5.243 0 9.5 4.257 9.5 9.5s-4.257 9.5-9.5 9.5-9.5-4.257-9.5-9.5 4.257-9.5 9.5-9.5"/><circle cx="54.929" cy="277.5" r="11.5" style="fill:#fff"/><path d="M54.929 266c6.347 0 11.5 5.153 11.5 11.5s-5.153 11.5-11.5 11.5-11.5-5.153-11.5-11.5 5.153-11.5 11.5-11.5m0 2c5.243 0 9.5 4.257 9.5 9.5s-4.257 9.5-9.5 9.5-9.5-4.257-9.5-9.5 4.257-9.5 9.5-9.5"/><path d="M43.429 100H362v35.5H43.429z" style="fill:#fff"/><path d="M362 100H43.429v35.5H362zm-2 2v31.5H45.429V102z"/><path d="M289.429 308H366v35.5h-76.571z" style="fill:#fff"/><path d="M366 308h-76.571v35.5H366zm-2 2v31.5h-72.571V310z"/><text x="296.543" y="330.761" style="font-family:&quot;ArialMT&quot;,&quot;Arial&quot;,sans-serif;font-size:14px">Set status</text><path d="M191.429 308H268v35.5h-76.571z" style="fill:#fff"/><path d="M268 308h-76.571v35.5H268zm-2 2v31.5h-72.571V310z"/><text x="208.069" y="330.761" style="font-family:&quot;ArialMT&quot;,&quot;Arial&quot;,sans-serif;font-size:14px">Cancel</text><text x="54.729" y="122.652" style="font-family:&quot;Arial-ItalicMT&quot;,&quot;Arial&quot;,sans-serif;font-style:italic;font-size:14px;fill:gray">What&apos;s happening?</text><path d="M15 75h372" style="fill:none;stroke:#000;stroke-width:2px"/><text x="41.974" y="55.312" style="font-family:&quot;Arial-BoldMT&quot;,&quot;Arial&quot;,sans-serif;font-weight:700;font-size:20px">Edit status</text><text x="42.732" y="166.786" style="font-family:&quot;ArialMT&quot;,&quot;Arial&quot;,sans-serif;font-size:14px">Clear status:</text><circle cx="54.929" cy="191.5" r="6.5"/></svg>