<svg xmlns="http://www.w3.org/2000/svg" width="202" height="40" fill="none"><path fill="#fff" d="M0 0h202v40H0z"/><path stroke="#000" stroke-linecap="round" stroke-linejoin="round" stroke-width="2" d="m21 14 2-2c1-1 3-1 4 0l1 1c1 1 1 3 0 4l-5 5c-1 1-3 1-4 0m0 4-2 2c-1 1-3 1-4 0l-1-1c-1-1-1-3 0-4l5-5c1-1 3-1 4 0"/><path fill="#000" d="M42.568 20.25v5.25h-1.34V13.864h1.34v4.272h.114c.204-.45.511-.808.92-1.073.413-.27.962-.404 1.648-.404.595 0 1.115.12 1.563.358.447.235.793.597 1.04 1.085.25.485.374 1.102.374 1.852V25.5h-1.34v-5.454c0-.694-.18-1.23-.54-1.608-.357-.383-.85-.574-1.483-.574-.44 0-.834.092-1.182.278a2.036 2.036 0 0 0-.818.813c-.197.356-.296.787-.296 1.295Zm11.908-3.477v1.136h-4.523v-1.136h4.523Zm-3.205-2.091h1.341V23c0 .379.055.663.165.852.114.186.258.31.432.375.178.06.365.091.562.091.148 0 .27-.007.364-.023l.227-.045.273 1.204a2.73 2.73 0 0 1-.38.103c-.164.038-.37.057-.62.057-.379 0-.75-.082-1.114-.245a2.213 2.213 0 0 1-.897-.744c-.235-.333-.353-.754-.353-1.261v-8.682Zm9.017 2.09v1.137h-4.522v-1.136h4.522Zm-3.204-2.09h1.34V23c0 .379.056.663.166.852.113.186.257.31.431.375.178.06.366.091.563.091.147 0 .269-.007.363-.023l.228-.045.272 1.204a2.73 2.73 0 0 1-.38.103c-.163.038-.37.057-.62.057-.378 0-.75-.082-1.113-.245a2.213 2.213 0 0 1-.898-.744c-.235-.333-.352-.754-.352-1.261v-8.682Zm5.221 14.09v-12h1.296v1.387h.159c.098-.151.235-.345.409-.58.178-.238.432-.45.761-.636.334-.19.784-.284 1.353-.284.734 0 1.382.184 1.943.551.56.368.998.889 1.312 1.563.315.674.472 1.47.472 2.386 0 .924-.157 1.726-.472 2.404-.314.674-.75 1.197-1.306 1.568-.557.367-1.2.55-1.927.55-.56 0-1.01-.092-1.346-.278-.337-.189-.597-.403-.779-.642a8.63 8.63 0 0 1-.42-.602h-.114v4.614h-1.34Zm1.319-7.636c0 .66.096 1.24.29 1.745.192.5.475.892.846 1.176.371.28.826.42 1.364.42.56 0 1.028-.148 1.403-.443.379-.3.663-.7.852-1.204.193-.508.29-1.072.29-1.694 0-.613-.095-1.166-.284-1.659-.186-.496-.468-.888-.847-1.176-.375-.291-.846-.437-1.414-.437-.546 0-1.004.138-1.375.414-.372.273-.652.656-.841 1.148-.19.489-.284 1.059-.284 1.71Zm14.613-2.409-1.204.341a2.235 2.235 0 0 0-.336-.585 1.626 1.626 0 0 0-.59-.477c-.25-.125-.57-.188-.96-.188-.535 0-.98.123-1.336.37-.352.242-.528.55-.528.926 0 .333.12.596.363.79.243.193.621.354 1.137.482l1.295.319c.78.189 1.362.479 1.744.869.383.386.574.884.574 1.494 0 .5-.144.947-.431 1.341-.285.394-.682.705-1.194.932-.511.227-1.106.34-1.784.34-.89 0-1.627-.192-2.21-.579-.583-.386-.953-.95-1.108-1.693l1.273-.318c.121.47.35.822.687 1.057.341.235.786.352 1.335.352.626 0 1.122-.133 1.49-.398.37-.269.556-.59.556-.966 0-.303-.106-.556-.318-.761-.212-.208-.538-.364-.977-.466l-1.455-.34c-.8-.19-1.386-.484-1.761-.881-.372-.402-.557-.904-.557-1.506 0-.493.138-.928.415-1.307.28-.379.66-.676 1.142-.892.484-.216 1.034-.324 1.647-.324.864 0 1.542.19 2.034.568.497.38.849.88 1.057 1.5Zm3.155 6.864c-.28 0-.52-.1-.721-.301a.984.984 0 0 1-.302-.722c0-.28.1-.52.302-.721.2-.201.44-.302.721-.302.28 0 .52.1.722.302.2.2.3.44.3.721a.963.963 0 0 1-.141.511c-.091.156-.214.28-.37.375a.974.974 0 0 1-.511.137Zm0-6.477c-.28 0-.52-.1-.721-.302a.984.984 0 0 1-.302-.721c0-.28.1-.52.302-.722.2-.2.44-.3.721-.3.28 0 .52.1.722.3.2.201.3.442.3.722a.964.964 0 0 1-.141.511c-.091.156-.214.28-.37.375a.975.975 0 0 1-.511.137Zm7.543-5.796-3.75 13.932h-1.228l3.75-13.932h1.228Zm5.703 0-3.75 13.932H89.66l3.75-13.932h1.228Zm5.476 3.455v1.136h-4.705v-1.136h4.705ZM96.818 25.5v-9.932c0-.5.118-.916.353-1.25.234-.333.54-.583.914-.75.375-.166.771-.25 1.188-.25.33 0 .598.027.807.08.208.053.363.102.465.148l-.386 1.159a6.584 6.584 0 0 0-.284-.086 1.722 1.722 0 0 0-.466-.05c-.443 0-.763.11-.96.334-.193.224-.29.551-.29.983V25.5h-1.34Zm8.361.182c-.788 0-1.479-.188-2.074-.563-.591-.375-1.053-.9-1.386-1.573-.33-.675-.495-1.463-.495-2.364 0-.91.165-1.703.495-2.38.333-.679.795-1.205 1.386-1.58.595-.375 1.286-.563 2.074-.563.788 0 1.477.188 2.068.563.595.375 1.057.901 1.387 1.58.333.677.5 1.47.5 2.38 0 .901-.167 1.69-.5 2.364-.33.674-.792 1.198-1.387 1.573-.591.375-1.28.563-2.068.563Zm0-1.205c.598 0 1.091-.153 1.477-.46.387-.307.673-.71.858-1.21.186-.5.279-1.042.279-1.625s-.093-1.127-.279-1.63a2.74 2.74 0 0 0-.858-1.223c-.386-.31-.879-.465-1.477-.465-.599 0-1.091.155-1.477.465a2.74 2.74 0 0 0-.858 1.222 4.672 4.672 0 0 0-.279 1.63c0 .584.093 1.126.279 1.626.185.5.471.903.858 1.21.386.307.878.46 1.477.46Zm9.547 1.205c-.788 0-1.479-.188-2.074-.563-.591-.375-1.053-.9-1.386-1.573-.33-.675-.495-1.463-.495-2.364 0-.91.165-1.703.495-2.38.333-.679.795-1.205 1.386-1.58.595-.375 1.286-.563 2.074-.563.788 0 1.477.188 2.068.563.595.375 1.057.901 1.386 1.58.334.677.5 1.47.5 2.38 0 .901-.166 1.69-.5 2.364a3.763 3.763 0 0 1-1.386 1.573c-.591.375-1.28.563-2.068.563Zm0-1.205c.598 0 1.091-.153 1.477-.46.386-.307.672-.71.858-1.21.186-.5.278-1.042.278-1.625s-.092-1.127-.278-1.63a2.755 2.755 0 0 0-.858-1.223c-.386-.31-.879-.465-1.477-.465-.599 0-1.091.155-1.477.465a2.74 2.74 0 0 0-.858 1.222 4.672 4.672 0 0 0-.279 1.63c0 .584.093 1.126.279 1.626.185.5.471.903.858 1.21.386.307.878.46 1.477.46Zm6.979 1.114a.985.985 0 0 1-.722-.301.983.983 0 0 1-.301-.722c0-.28.1-.52.301-.721a.984.984 0 0 1 .722-.302c.28 0 .52.1.721.302.201.2.301.44.301.721a.96.96 0 0 1-.142.511c-.091.156-.214.28-.369.375a.975.975 0 0 1-.511.137Zm7.088.09c-.841 0-1.567-.185-2.177-.556a3.74 3.74 0 0 1-1.403-1.568c-.326-.674-.489-1.458-.489-2.352 0-.894.163-1.682.489-2.364.33-.686.788-1.22 1.375-1.602.591-.387 1.28-.58 2.068-.58.455 0 .904.076 1.347.227a3.34 3.34 0 0 1 1.21.739c.364.337.653.784.869 1.34.216.558.324 1.243.324 2.058v.568h-6.727v-1.16h5.364c0-.492-.099-.931-.296-1.317a2.23 2.23 0 0 0-.829-.915c-.356-.224-.777-.335-1.262-.335-.534 0-.996.132-1.386.397a2.615 2.615 0 0 0-.892 1.023 3.01 3.01 0 0 0-.313 1.352v.773c0 .66.114 1.218.341 1.676.231.455.551.801.96 1.04.41.235.885.352 1.427.352.352 0 .67-.049.954-.148.288-.102.536-.253.744-.454.209-.204.37-.458.483-.761l1.296.363a2.87 2.87 0 0 1-.688 1.16c-.322.329-.719.587-1.193.772a4.42 4.42 0 0 1-1.596.273Zm6.419-8.908 2.091 3.568 2.09-3.568h1.546l-2.818 4.363 2.818 4.364h-1.546l-2.09-3.386-2.091 3.386h-1.546l2.773-4.364-2.773-4.363h1.546Zm10.208 8.931a3.543 3.543 0 0 1-1.505-.312 2.582 2.582 0 0 1-1.074-.915c-.265-.401-.398-.886-.398-1.454 0-.5.099-.906.296-1.216.197-.315.46-.56.789-.739.33-.178.694-.31 1.091-.398.402-.09.805-.162 1.211-.216.53-.068.96-.119 1.289-.153.334-.038.576-.1.728-.187.155-.088.233-.239.233-.455v-.045c0-.561-.154-.997-.461-1.307-.303-.31-.763-.466-1.38-.466-.641 0-1.142.14-1.506.42-.364.28-.619.58-.767.898l-1.273-.454c.227-.53.53-.944.909-1.24.383-.298.8-.507 1.25-.624a5.196 5.196 0 0 1 1.341-.182c.28 0 .602.034.966.102.368.065.722.2 1.063.404.344.204.63.513.858.926.227.413.34.966.34 1.659v5.75h-1.34v-1.182h-.069c-.091.19-.242.392-.454.608-.212.216-.494.4-.847.551-.352.152-.782.227-1.29.227Zm.205-1.204c.53 0 .977-.104 1.341-.313.367-.208.644-.477.829-.806.19-.33.285-.677.285-1.04v-1.227c-.057.068-.182.13-.375.187-.19.053-.41.1-.66.142a29.56 29.56 0 0 1-1.284.17c-.348.046-.674.12-.977.222a1.681 1.681 0 0 0-.727.45c-.182.196-.273.465-.273.806 0 .466.172.818.517 1.057.349.235.79.352 1.324.352Zm6.243 1v-8.727h1.295v1.363h.114c.182-.465.475-.827.881-1.085.405-.261.892-.392 1.46-.392.576 0 1.055.13 1.437.392.387.258.688.62.904 1.085h.091c.223-.45.558-.808 1.005-1.073.447-.27.983-.404 1.608-.404.781 0 1.419.244 1.915.733.496.485.744 1.24.744 2.267V25.5h-1.34v-5.84c0-.645-.177-1.105-.529-1.382a1.955 1.955 0 0 0-1.244-.414c-.614 0-1.089.185-1.426.556-.337.368-.506.834-.506 1.398V25.5h-1.364v-5.977c0-.497-.161-.896-.483-1.2-.322-.306-.736-.46-1.244-.46-.348 0-.674.093-.977.279a2.1 2.1 0 0 0-.727.773 2.28 2.28 0 0 0-.273 1.13V25.5h-1.341Zm13.906 3.273v-12h1.296v1.386h.159c.098-.151.235-.345.409-.58.178-.238.432-.45.761-.636.333-.19.784-.284 1.352-.284.735 0 1.383.184 1.944.551.56.368.998.889 1.312 1.563.314.674.472 1.47.472 2.386 0 .924-.158 1.726-.472 2.404-.314.674-.75 1.197-1.307 1.568-.557.367-1.199.55-1.926.55-.56 0-1.009-.092-1.346-.278-.338-.189-.597-.403-.779-.642a8.362 8.362 0 0 1-.42-.602h-.114v4.614h-1.341Zm1.318-7.637c0 .66.097 1.24.29 1.745.193.5.475.892.847 1.176.371.28.825.42 1.363.42.561 0 1.029-.148 1.404-.443.379-.3.663-.7.852-1.204a4.73 4.73 0 0 0 .29-1.694 4.6 4.6 0 0 0-.284-1.659c-.186-.496-.468-.888-.847-1.176-.375-.291-.846-.437-1.415-.437-.545 0-1.003.138-1.375.414-.371.273-.651.656-.841 1.148-.189.489-.284 1.059-.284 1.71Zm9.773-7.272V25.5h-1.341V13.864h1.341Zm6.115 11.818c-.841 0-1.566-.186-2.176-.557a3.733 3.733 0 0 1-1.403-1.568c-.326-.674-.489-1.458-.489-2.352 0-.894.163-1.682.489-2.364.329-.686.787-1.22 1.375-1.602.59-.387 1.28-.58 2.068-.58.454 0 .903.076 1.346.227.444.152.847.398 1.211.739.363.337.653.784.869 1.34.216.558.324 1.243.324 2.058v.568h-6.728v-1.16h5.364c0-.492-.098-.931-.295-1.317a2.232 2.232 0 0 0-.83-.915c-.356-.224-.776-.335-1.261-.335-.534 0-.996.132-1.387.397a2.623 2.623 0 0 0-.892 1.023c-.208.42-.312.871-.312 1.352v.773c0 .66.113 1.218.341 1.676.231.455.551.801.96 1.04.409.235.884.352 1.426.352.352 0 .671-.049.955-.148.288-.102.536-.253.744-.454.208-.204.369-.458.483-.761l1.295.363c-.136.44-.365.826-.687 1.16-.322.329-.72.587-1.193.772a4.43 4.43 0 0 1-1.597.273Zm9.767-12.364-3.75 13.932h-1.227l3.75-13.932h1.227Z"/></svg>