<svg xmlns="http://www.w3.org/2000/svg" width="1200" height="914" fill="none"><g clip-path="url(#a)"><path fill="#fff" d="M0 0h1200v914H0z"/><path fill="#D9D9D9" d="M0 0h1200v630H0z"/><path fill="#EEE" d="M882 556h308v64H882z"/><path fill="#000" d="M911 590h-2v-5h2m0 9h-2v-2h2m-12 5h22l-11-19-11 19ZM938.773 571.614v-1.25h8.727v1.25h-3.659V582h-1.409v-10.386h-3.659Zm12.061 5.136V582h-1.341v-11.636h1.341v4.272h.113c.205-.45.512-.808.921-1.074.413-.268.962-.403 1.648-.403.594 0 1.115.119 1.562.358a2.41 2.41 0 0 1 1.04 1.085c.25.485.375 1.103.375 1.853V582h-1.341v-5.455c0-.693-.18-1.229-.54-1.607-.356-.383-.85-.574-1.483-.574-.439 0-.833.092-1.182.278a2.038 2.038 0 0 0-.818.813c-.197.356-.295.787-.295 1.295Zm8.112 5.25v-8.727h1.341V582h-1.341Zm.682-10.182a.951.951 0 0 1-.676-.267.857.857 0 0 1-.279-.642c0-.25.093-.464.279-.642a.951.951 0 0 1 .676-.267c.261 0 .485.089.67.267.19.178.284.392.284.642s-.094.464-.284.642a.932.932 0 0 1-.67.267Zm9.297 3.409-1.205.341a2.224 2.224 0 0 0-.335-.585 1.63 1.63 0 0 0-.591-.477c-.25-.125-.57-.188-.96-.188-.534 0-.979.123-1.335.37-.353.242-.529.551-.529.926 0 .333.121.596.364.789.242.194.621.355 1.136.483l1.296.319c.78.189 1.361.479 1.744.869.383.386.574.884.574 1.494 0 .5-.144.947-.432 1.341-.284.394-.682.705-1.193.932-.512.227-1.106.341-1.784.341-.89 0-1.627-.193-2.211-.58-.583-.386-.952-.95-1.107-1.693l1.272-.318c.121.47.351.822.688 1.057.341.235.786.352 1.335.352.625 0 1.121-.133 1.489-.398.371-.269.556-.591.556-.966 0-.303-.106-.556-.318-.761-.212-.208-.538-.364-.977-.466l-1.455-.341c-.799-.189-1.386-.483-1.761-.88-.371-.402-.557-.904-.557-1.506 0-.493.139-.928.415-1.307a2.82 2.82 0 0 1 1.142-.892c.485-.216 1.034-.324 1.648-.324.863 0 1.541.189 2.034.568a3.07 3.07 0 0 1 1.057 1.5Zm6.677 6.773v-8.727h1.341V582h-1.341Zm.682-10.182a.953.953 0 0 1-.676-.267.856.856 0 0 1-.278-.642c0-.25.092-.464.278-.642a.953.953 0 0 1 .676-.267c.261 0 .485.089.671.267a.851.851 0 0 1 .284.642c0 .25-.095.464-.284.642a.936.936 0 0 1-.671.267ZM979.399 582v-8.727h1.296v1.363h.113c.182-.466.476-.827.881-1.085.405-.261.892-.392 1.46-.392.576 0 1.055.131 1.438.392.386.258.687.619.903 1.085h.091a2.55 2.55 0 0 1 1.006-1.074c.447-.268.983-.403 1.608-.403.78 0 1.418.244 1.914.733.497.485.745 1.241.745 2.267V582h-1.341v-5.841c0-.644-.176-1.104-.529-1.381a1.957 1.957 0 0 0-1.244-.414c-.614 0-1.089.185-1.426.556-.337.368-.506.834-.506 1.398V582h-1.363v-5.977c0-.496-.161-.896-.483-1.199-.322-.307-.737-.46-1.245-.46-.348 0-.674.092-.977.278a2.1 2.1 0 0 0-.727.773 2.277 2.277 0 0 0-.273 1.13V582h-1.341Zm16.475.205a3.554 3.554 0 0 1-1.506-.313 2.58 2.58 0 0 1-1.074-.915c-.265-.401-.398-.886-.398-1.454 0-.5.099-.906.296-1.216.197-.315.46-.561.79-.739a4.18 4.18 0 0 1 1.09-.398c.402-.09.805-.162 1.211-.215.53-.069.96-.12 1.289-.154.334-.038.576-.1.728-.187.155-.087.233-.239.233-.455v-.045c0-.561-.154-.997-.461-1.307-.303-.311-.763-.466-1.38-.466-.64 0-1.142.14-1.506.42-.364.281-.619.58-.767.898l-1.273-.454c.228-.531.531-.944.909-1.239.383-.299.8-.508 1.25-.625a5.205 5.205 0 0 1 1.341-.182c.281 0 .603.034.966.102.368.065.722.199 1.063.404.344.204.63.513.858.926.227.413.341.966.341 1.659V582h-1.341v-1.182h-.069a2.33 2.33 0 0 1-.454.608c-.212.216-.494.4-.847.551-.352.152-.782.228-1.289.228Zm.204-1.205c.53 0 .977-.104 1.341-.312.367-.209.644-.478.83-.807.189-.33.284-.676.284-1.04v-1.227c-.057.068-.182.13-.375.187-.19.053-.409.101-.659.142-.247.038-.487.072-.722.102-.231.027-.419.05-.563.069a5.114 5.114 0 0 0-.977.221 1.69 1.69 0 0 0-.727.449c-.182.197-.273.466-.273.807 0 .466.173.818.517 1.057.349.235.79.352 1.324.352Zm9.762 4.455c-.64 0-1.2-.084-1.67-.25a3.576 3.576 0 0 1-1.16-.648 3.418 3.418 0 0 1-.73-.852l1.06-.75c.12.159.28.34.46.545.19.208.44.388.77.54.32.155.75.233 1.27.233.71 0 1.29-.171 1.75-.512.46-.341.69-.875.69-1.602v-1.773h-.12c-.1.159-.24.356-.42.591-.18.231-.43.438-.77.62-.33.178-.79.267-1.35.267-.71 0-1.34-.167-1.9-.5-.56-.334-1-.819-1.33-1.455-.32-.636-.48-1.409-.48-2.318 0-.894.16-1.672.47-2.335.32-.667.76-1.182 1.32-1.546.56-.367 1.2-.551 1.94-.551.57 0 1.02.095 1.35.284.34.186.6.398.77.637.19.234.33.428.42.579h.14v-1.386h1.3v8.977c0 .75-.17 1.36-.51 1.83-.34.473-.8.82-1.37 1.039-.57.224-1.2.336-1.9.336Zm-.04-4.796c.54 0 .99-.123 1.36-.369.37-.246.66-.601.85-1.063.19-.462.29-1.015.29-1.659 0-.629-.1-1.184-.29-1.665-.19-.481-.47-.858-.84-1.13-.37-.273-.83-.409-1.37-.409-.57 0-1.04.144-1.42.431-.38.288-.66.675-.85 1.16a4.598 4.598 0 0 0-.28 1.613c0 .606.1 1.142.29 1.608.19.462.47.826.85 1.091.38.261.85.392 1.41.392Zm9.93 1.523c-.84 0-1.57-.186-2.18-.557a3.776 3.776 0 0 1-1.4-1.568c-.33-.674-.49-1.459-.49-2.352 0-.894.16-1.682.49-2.364.33-.686.79-1.22 1.38-1.602.59-.387 1.28-.58 2.06-.58.46 0 .91.076 1.35.227.44.152.85.398 1.21.739.36.337.65.784.87 1.341.22.557.32 1.242.32 2.057v.568h-6.72v-1.159h5.36c0-.493-.1-.932-.3-1.318a2.244 2.244 0 0 0-.82-.915c-.36-.224-.78-.335-1.27-.335-.53 0-.99.132-1.38.397-.39.262-.69.603-.89 1.023a2.99 2.99 0 0 0-.32 1.352v.773c0 .659.12 1.218.34 1.676.23.455.55.801.96 1.04.41.235.89.352 1.43.352.35 0 .67-.049.95-.147.29-.103.54-.254.75-.455.21-.205.37-.458.48-.761l1.3.363c-.14.44-.37.826-.69 1.159-.32.33-.72.587-1.19.773-.48.182-1.01.273-1.6.273Zm10.15-.182v-8.727h1.34V582h-1.34Zm.69-10.182a.95.95 0 0 1-.68-.267.844.844 0 0 1-.28-.642c0-.25.09-.464.28-.642a.95.95 0 0 1 .68-.267c.26 0 .48.089.67.267.19.178.28.392.28.642s-.09.464-.28.642a.942.942 0 0 1-.67.267Zm9.29 3.409-1.2.341a2.304 2.304 0 0 0-.34-.585 1.592 1.592 0 0 0-.59-.477c-.25-.125-.57-.188-.96-.188-.53 0-.98.123-1.33.37-.36.242-.53.551-.53.926 0 .333.12.596.36.789.24.194.62.355 1.14.483l1.29.319c.78.189 1.36.479 1.75.869.38.386.57.884.57 1.494 0 .5-.14.947-.43 1.341-.28.394-.68.705-1.19.932-.52.227-1.11.341-1.79.341-.89 0-1.62-.193-2.21-.58-.58-.386-.95-.95-1.11-1.693l1.28-.318c.12.47.35.822.68 1.057.35.235.79.352 1.34.352.62 0 1.12-.133 1.49-.398.37-.269.55-.591.55-.966 0-.303-.1-.556-.31-.761-.22-.208-.54-.364-.98-.466l-1.46-.341c-.79-.189-1.38-.483-1.76-.88-.37-.402-.55-.904-.55-1.506 0-.493.14-.928.41-1.307a2.82 2.82 0 0 1 1.14-.892 4.049 4.049 0 0 1 1.65-.324c.86 0 1.54.189 2.04.568.49.379.84.879 1.05 1.5Zm6.68 6.773v-8.727h1.3v1.363h.11c.18-.466.47-.827.88-1.085.4-.261.89-.392 1.46-.392.58 0 1.05.131 1.44.392.38.258.68.619.9 1.085h.09c.23-.45.56-.808 1.01-1.074.44-.268.98-.403 1.61-.403.78 0 1.41.244 1.91.733.5.485.74 1.241.74 2.267V582h-1.34v-5.841c0-.644-.17-1.104-.53-1.381a1.936 1.936 0 0 0-1.24-.414c-.61 0-1.09.185-1.43.556-.33.368-.5.834-.5 1.398V582h-1.36v-5.977c0-.496-.17-.896-.49-1.199-.32-.307-.73-.46-1.24-.46-.35 0-.68.092-.98.278-.3.186-.54.443-.73.773-.18.326-.27.702-.27 1.13V582h-1.34Zm16.47.205c-.55 0-1.05-.105-1.5-.313a2.634 2.634 0 0 1-1.08-.915c-.26-.401-.39-.886-.39-1.454 0-.5.1-.906.29-1.216a2.1 2.1 0 0 1 .79-.739c.33-.178.7-.31 1.09-.398.4-.09.81-.162 1.21-.215.53-.069.96-.12 1.29-.154.34-.038.58-.1.73-.187.16-.087.23-.239.23-.455v-.045c0-.561-.15-.997-.46-1.307-.3-.311-.76-.466-1.38-.466-.64 0-1.14.14-1.5.42-.37.281-.62.58-.77.898l-1.27-.454c.22-.531.53-.944.91-1.239.38-.299.8-.508 1.25-.625.45-.121.9-.182 1.34-.182.28 0 .6.034.96.102.37.065.72.199 1.07.404.34.204.63.513.85.926.23.413.34.966.34 1.659V582h-1.34v-1.182h-.06c-.1.19-.25.392-.46.608-.21.216-.49.4-.85.551-.35.152-.78.228-1.29.228Zm.21-1.205c.53 0 .98-.104 1.34-.312.37-.209.64-.478.83-.807.19-.33.28-.676.28-1.04v-1.227c-.05.068-.18.13-.37.187-.19.053-.41.101-.66.142a34.442 34.442 0 0 1-1.28.171 5.06 5.06 0 0 0-.98.221c-.3.099-.54.248-.73.449-.18.197-.27.466-.27.807 0 .466.17.818.51 1.057.35.235.79.352 1.33.352Zm6.24 1v-8.727h1.3v1.318h.09c.16-.432.44-.782.86-1.051a2.56 2.56 0 0 1 1.41-.404c.1 0 .22.002.37.006s.26.01.34.017v1.364a3.586 3.586 0 0 0-.32-.051c-.16-.027-.32-.04-.5-.04-.43 0-.81.089-1.14.267a1.98 1.98 0 0 0-1.07 1.778V582h-1.34Zm7.2-3.182-.02-1.659h.27l3.82-3.886h1.66l-4.07 4.113h-.11l-1.55 1.432Zm-1.25 3.182v-11.636h1.35V582h-1.35Zm5.55 0-3.41-4.318.96-.932 4.15 5.25h-1.7Zm6.46.182c-.84 0-1.57-.186-2.18-.557a3.776 3.776 0 0 1-1.4-1.568c-.33-.674-.49-1.459-.49-2.352 0-.894.16-1.682.49-2.364.33-.686.79-1.22 1.37-1.602.59-.387 1.28-.58 2.07-.58.46 0 .9.076 1.35.227.44.152.84.398 1.21.739.36.337.65.784.87 1.341.21.557.32 1.242.32 2.057v.568h-6.73v-1.159h5.37c0-.493-.1-.932-.3-1.318a2.199 2.199 0 0 0-.83-.915c-.35-.224-.77-.335-1.26-.335-.53 0-.99.132-1.39.397-.38.262-.68.603-.89 1.023-.21.421-.31.871-.31 1.352v.773c0 .659.11 1.218.34 1.676.23.455.55.801.96 1.04.41.235.89.352 1.43.352.35 0 .67-.049.95-.147.29-.103.54-.254.75-.455.2-.205.37-.458.48-.761l1.29.363c-.13.44-.36.826-.68 1.159-.32.33-.72.587-1.2.773-.47.182-1 .273-1.59.273Zm8.95 0c-.73 0-1.37-.184-1.93-.551-.56-.372-.99-.894-1.31-1.569-.31-.678-.47-1.479-.47-2.403 0-.917.16-1.712.47-2.386.32-.675.76-1.195 1.32-1.563.56-.367 1.2-.551 1.94-.551.57 0 1.02.095 1.35.284.33.186.58.398.76.637.18.234.31.428.41.579h.12v-4.295h1.34V582h-1.3v-1.341h-.16c-.1.159-.24.36-.42.602-.18.239-.44.453-.78.642-.33.186-.78.279-1.34.279Zm.18-1.205c.54 0 .99-.14 1.36-.42.37-.284.66-.676.85-1.176.19-.504.29-1.086.29-1.745 0-.651-.1-1.221-.29-1.71-.19-.492-.47-.875-.84-1.148-.37-.276-.83-.414-1.37-.414-.57 0-1.04.145-1.42.437-.38.288-.66.68-.85 1.176a4.808 4.808 0 0 0-.28 1.659c0 .622.1 1.186.29 1.694.19.503.47.905.85 1.204.38.296.85.443 1.41.443Zm17.14-5.75-1.2.341a2.304 2.304 0 0 0-.34-.585 1.592 1.592 0 0 0-.59-.477c-.25-.125-.57-.188-.96-.188-.53 0-.98.123-1.34.37-.35.242-.52.551-.52.926 0 .333.12.596.36.789.24.194.62.355 1.14.483l1.29.319c.78.189 1.36.479 1.75.869.38.386.57.884.57 1.494 0 .5-.14.947-.43 1.341s-.68.705-1.2.932c-.51.227-1.1.341-1.78.341-.89 0-1.63-.193-2.21-.58-.58-.386-.95-.95-1.11-1.693l1.27-.318c.13.47.36.822.69 1.057.34.235.79.352 1.34.352.62 0 1.12-.133 1.49-.398.37-.269.55-.591.55-.966 0-.303-.1-.556-.32-.761-.21-.208-.53-.364-.97-.466l-1.46-.341c-.8-.189-1.38-.483-1.76-.88-.37-.402-.56-.904-.56-1.506 0-.493.14-.928.42-1.307a2.82 2.82 0 0 1 1.14-.892 4.049 4.049 0 0 1 1.65-.324c.86 0 1.54.189 2.03.568.5.379.85.879 1.06 1.5Zm5.84 6.955c-.84 0-1.57-.186-2.18-.557-.61-.375-1.07-.898-1.4-1.568-.33-.674-.49-1.459-.49-2.352 0-.894.16-1.682.49-2.364.33-.686.79-1.22 1.37-1.602.59-.387 1.28-.58 2.07-.58.46 0 .9.076 1.35.227.44.152.84.398 1.21.739.36.337.65.784.87 1.341.21.557.32 1.242.32 2.057v.568h-6.73v-1.159h5.37c0-.493-.1-.932-.3-1.318a2.199 2.199 0 0 0-.83-.915c-.35-.224-.77-.335-1.26-.335-.53 0-1 .132-1.39.397-.38.262-.68.603-.89 1.023-.21.421-.31.871-.31 1.352v.773c0 .659.11 1.218.34 1.676.23.455.55.801.96 1.04.41.235.89.352 1.43.352.35 0 .67-.049.95-.147.29-.103.54-.254.75-.455.2-.205.37-.458.48-.761l1.29.363c-.13.44-.36.826-.68 1.159-.33.33-.72.587-1.2.773-.47.182-1 .273-1.59.273Zm6.99-5.432V582h-1.34v-8.727h1.3v1.363h.11c.2-.443.51-.799.93-1.068.42-.273.96-.409 1.61-.409.6 0 1.11.121 1.56.364.44.238.78.602 1.03 1.091.25.484.37 1.098.37 1.841V582h-1.34v-5.455c0-.685-.18-1.219-.54-1.602-.35-.386-.84-.579-1.46-.579-.43 0-.81.092-1.15.278-.33.186-.6.456-.79.813-.19.356-.29.787-.29 1.295Zm14.2-1.523-1.2.341a2.304 2.304 0 0 0-.34-.585 1.592 1.592 0 0 0-.59-.477c-.25-.125-.57-.188-.96-.188-.53 0-.98.123-1.33.37-.36.242-.53.551-.53.926 0 .333.12.596.36.789.24.194.62.355 1.14.483l1.29.319c.78.189 1.36.479 1.75.869.38.386.57.884.57 1.494 0 .5-.14.947-.43 1.341s-.68.705-1.19.932c-.52.227-1.11.341-1.79.341-.89 0-1.63-.193-2.21-.58-.58-.386-.95-.95-1.11-1.693l1.28-.318c.12.47.35.822.68 1.057.34.235.79.352 1.34.352.62 0 1.12-.133 1.49-.398.37-.269.55-.591.55-.966 0-.303-.1-.556-.31-.761-.22-.208-.54-.364-.98-.466l-1.46-.341c-.79-.189-1.38-.483-1.76-.88-.37-.402-.55-.904-.55-1.506 0-.493.13-.928.41-1.307a2.82 2.82 0 0 1 1.14-.892 4.049 4.049 0 0 1 1.65-.324c.86 0 1.54.189 2.03.568.5.379.85.879 1.06 1.5Zm2.18 6.773v-8.727h1.34V582h-1.34Zm.68-10.182a.966.966 0 0 1-.68-.267.87.87 0 0 1-.27-.642c0-.25.09-.464.27-.642a.966.966 0 0 1 .68-.267c.26 0 .49.089.67.267a.854.854 0 0 1 0 1.284.926.926 0 0 1-.67.267Zm6.91 1.455v1.136h-4.52v-1.136h4.52Zm-3.2-2.091h1.34v8.318c0 .379.05.663.16.852.12.186.26.311.43.375.18.061.37.091.57.091.14 0 .27-.007.36-.023.1-.018.17-.034.23-.045l.27 1.205a2.8 2.8 0 0 1-.38.102c-.16.038-.37.057-.62.057-.38 0-.75-.082-1.11-.245a2.23 2.23 0 0 1-.9-.744c-.24-.333-.35-.754-.35-1.261v-8.682Zm5.22 10.818v-8.727h1.34V582h-1.34Zm.68-10.182a.966.966 0 0 1-.68-.267.87.87 0 0 1-.27-.642c0-.25.09-.464.27-.642a.966.966 0 0 1 .68-.267c.26 0 .49.089.67.267.19.178.28.392.28.642s-.09.464-.28.642a.926.926 0 0 1-.67.267Zm10.25 1.455-3.23 8.727h-1.36l-3.23-8.727h1.46l2.41 6.954h.09l2.41-6.954h1.45Zm5.12 8.909c-.84 0-1.57-.186-2.18-.557a3.776 3.776 0 0 1-1.4-1.568c-.33-.674-.49-1.459-.49-2.352 0-.894.16-1.682.49-2.364.33-.686.79-1.22 1.37-1.602.59-.387 1.28-.58 2.07-.58.46 0 .91.076 1.35.227.44.152.85.398 1.21.739.36.337.65.784.87 1.341.21.557.32 1.242.32 2.057v.568h-6.73v-1.159h5.37c0-.493-.1-.932-.3-1.318a2.199 2.199 0 0 0-.83-.915c-.35-.224-.77-.335-1.26-.335-.53 0-.99.132-1.38.397-.39.262-.69.603-.9 1.023-.2.421-.31.871-.31 1.352v.773c0 .659.11 1.218.34 1.676.23.455.55.801.96 1.04.41.235.89.352 1.43.352.35 0 .67-.049.95-.147.29-.103.54-.254.75-.455.21-.205.37-.458.48-.761l1.3.363c-.14.44-.37.826-.69 1.159-.32.33-.72.587-1.2.773-.47.182-1 .273-1.59.273Zm6.63-.091c-.28 0-.52-.1-.72-.301a.988.988 0 0 1-.3-.722c0-.28.1-.521.3-.721a.98.98 0 0 1 .72-.302c.28 0 .52.101.72.302.2.2.3.441.3.721 0 .186-.05.356-.14.512-.09.155-.21.28-.37.375a.973.973 0 0 1-.51.136ZM948.773 598h-1.409a2.95 2.95 0 0 0-1.188-1.841 3.185 3.185 0 0 0-.971-.477 3.891 3.891 0 0 0-1.114-.159 3.55 3.55 0 0 0-1.915.534c-.568.356-1.021.881-1.358 1.574-.333.693-.5 1.543-.5 2.551 0 1.007.167 1.858.5 2.551.337.693.79 1.218 1.358 1.574a3.55 3.55 0 0 0 1.915.534c.386 0 .757-.053 1.114-.159.356-.106.679-.263.971-.472a2.97 2.97 0 0 0 1.188-1.846h1.409a4.696 4.696 0 0 1-.58 1.596c-.28.47-.629.87-1.045 1.199a4.569 4.569 0 0 1-1.404.744 5.213 5.213 0 0 1-1.653.256c-.993 0-1.875-.242-2.648-.727-.773-.485-1.38-1.174-1.824-2.068-.443-.894-.664-1.955-.664-3.182 0-1.227.221-2.288.664-3.182.444-.894 1.051-1.583 1.824-2.068.773-.485 1.655-.727 2.648-.727.587 0 1.138.085 1.653.255.519.171.987.421 1.404.75.416.326.765.724 1.045 1.193.28.466.474.999.58 1.597Zm3.436-3.636V606h-1.341v-11.636h1.341ZM954.665 606v-8.727h1.341V606h-1.341Zm.682-10.182a.955.955 0 0 1-.677-.267.86.86 0 0 1-.278-.642.86.86 0 0 1 .278-.642.955.955 0 0 1 .677-.267c.261 0 .484.089.67.267a.851.851 0 0 1 .284.642c0 .25-.095.464-.284.642a.934.934 0 0 1-.67.267Zm6.66 10.364c-.818 0-1.523-.193-2.114-.58a3.777 3.777 0 0 1-1.363-1.596c-.318-.678-.477-1.453-.477-2.324 0-.887.162-1.669.488-2.347.33-.682.788-1.214 1.375-1.596.591-.387 1.28-.58 2.068-.58.614 0 1.167.114 1.659.341a3.17 3.17 0 0 1 1.211.955c.314.409.509.886.585 1.431h-1.341c-.102-.397-.33-.75-.682-1.056-.348-.311-.818-.466-1.409-.466-.523 0-.981.136-1.375.409-.39.269-.695.649-.915 1.142-.216.488-.324 1.062-.324 1.721 0 .675.107 1.262.319 1.762.216.5.519.888.909 1.164.394.277.856.415 1.386.415.349 0 .665-.06.949-.182.284-.121.525-.295.722-.522.197-.228.337-.5.42-.818h1.341a3.102 3.102 0 0 1-.563 1.392 3.142 3.142 0 0 1-1.176.977c-.485.238-1.049.358-1.693.358Zm6.642-3.364-.023-1.659h.273l3.818-3.886h1.659l-4.068 4.113h-.113l-1.546 1.432Zm-1.25 3.182v-11.636h1.341V606h-1.341Zm5.546 0-3.409-4.318.954-.932 4.159 5.25h-1.704Zm8.998-5.25V606h-1.341v-11.636h1.341v4.272h.114c.204-.45.511-.808.92-1.074.413-.268.962-.403 1.648-.403.595 0 1.116.119 1.563.358.446.235.793.597 1.039 1.085.25.485.375 1.103.375 1.853V606h-1.341v-5.455c0-.693-.18-1.229-.539-1.607-.356-.383-.851-.574-1.483-.574-.44 0-.834.092-1.182.278a2.025 2.025 0 0 0-.818.813c-.197.356-.296.787-.296 1.295Zm11.771 5.432c-.84 0-1.566-.186-2.176-.557a3.736 3.736 0 0 1-1.403-1.568c-.326-.674-.489-1.459-.489-2.352 0-.894.163-1.682.489-2.364.329-.686.788-1.22 1.375-1.602.591-.387 1.28-.58 2.068-.58.455 0 .904.076 1.347.227.443.152.846.398 1.21.739.364.337.653.784.869 1.341.216.557.324 1.242.324 2.057v.568h-6.727v-1.159h5.363c0-.493-.098-.932-.295-1.318a2.219 2.219 0 0 0-.83-.915c-.356-.224-.776-.335-1.261-.335-.534 0-.996.132-1.386.397a2.617 2.617 0 0 0-.892 1.023 2.997 2.997 0 0 0-.313 1.352v.773c0 .659.114 1.218.341 1.676.231.455.551.801.96 1.04.409.235.885.352 1.426.352.353 0 .671-.049.955-.147.288-.103.536-.254.744-.455.209-.205.37-.458.483-.761l1.296.363c-.137.44-.366.826-.688 1.159-.322.33-.719.587-1.193.773a4.421 4.421 0 0 1-1.597.273Zm5.654-.182v-8.727h1.292v1.318h.09c.16-.432.45-.782.87-1.051.41-.269.88-.404 1.41-.404.1 0 .22.002.37.006.14.004.26.01.33.017v1.364a3.144 3.144 0 0 0-.31-.051c-.16-.027-.33-.04-.51-.04-.42 0-.8.089-1.13.267-.33.174-.59.417-.79.727-.19.307-.28.657-.28 1.051V606h-1.342Zm9.342.182c-.84 0-1.56-.186-2.17-.557a3.731 3.731 0 0 1-1.41-1.568c-.32-.674-.48-1.459-.48-2.352 0-.894.16-1.682.48-2.364.33-.686.79-1.22 1.38-1.602.59-.387 1.28-.58 2.07-.58.45 0 .9.076 1.34.227.45.152.85.398 1.21.739.37.337.66.784.87 1.341.22.557.33 1.242.33 2.057v.568h-6.73v-1.159h5.36c0-.493-.09-.932-.29-1.318a2.199 2.199 0 0 0-.83-.915c-.36-.224-.78-.335-1.26-.335-.54 0-1 .132-1.39.397-.38.262-.68.603-.89 1.023-.21.421-.31.871-.31 1.352v.773c0 .659.11 1.218.34 1.676.23.455.55.801.96 1.04.41.235.88.352 1.42.352.36 0 .67-.049.96-.147.29-.103.54-.254.74-.455.21-.205.37-.458.49-.761l1.29.363c-.13.44-.36.826-.69 1.159-.32.33-.72.587-1.19.773-.47.182-1 .273-1.6.273Zm13.95-8.909v1.136h-4.52v-1.136h4.52Zm-3.2-2.091h1.34v8.318c0 .379.05.663.16.852.12.186.26.311.44.375.17.061.36.091.56.091.15 0 .27-.007.36-.023.1-.018.17-.034.23-.045l.27 1.205a2.8 2.8 0 0 1-.38.102c-.16.038-.37.057-.62.057-.38 0-.75-.082-1.11-.245a2.23 2.23 0 0 1-.9-.744c-.23-.333-.35-.754-.35-1.261v-8.682Zm8.67 11c-.79 0-1.48-.188-2.07-.563-.59-.375-1.05-.899-1.39-1.574-.33-.674-.49-1.462-.49-2.363 0-.909.16-1.703.49-2.381.34-.678.8-1.204 1.39-1.579.59-.375 1.28-.563 2.07-.563.79 0 1.48.188 2.07.563.59.375 1.06.901 1.39 1.579.33.678.5 1.472.5 2.381 0 .901-.17 1.689-.5 2.363-.33.675-.8 1.199-1.39 1.574-.59.375-1.28.563-2.07.563Zm0-1.205c.6 0 1.09-.153 1.48-.46.39-.307.67-.71.86-1.21.18-.5.28-1.042.28-1.625 0-.584-.1-1.127-.28-1.631-.19-.504-.47-.911-.86-1.221-.39-.311-.88-.466-1.48-.466s-1.09.155-1.48.466c-.38.31-.67.717-.85 1.221a4.582 4.582 0 0 0-.28 1.631c0 .583.09 1.125.28 1.625.18.5.47.903.85 1.21.39.307.88.46 1.48.46Zm14.3-7.704v1.136h-4.52v-1.136h4.52Zm-3.21-2.091h1.35v8.318c0 .379.05.663.16.852.11.186.26.311.43.375.18.061.37.091.56.091.15 0 .27-.007.37-.023l.23-.045.27 1.205a2.8 2.8 0 0 1-.38.102c-.17.038-.37.057-.62.057-.38 0-.75-.082-1.12-.245a2.201 2.201 0 0 1-.89-.744c-.24-.333-.36-.754-.36-1.261v-8.682Zm8.68 11c-.79 0-1.48-.188-2.08-.563-.59-.375-1.05-.899-1.38-1.574-.33-.674-.5-1.462-.5-2.363 0-.909.17-1.703.5-2.381.33-.678.79-1.204 1.38-1.579.6-.375 1.29-.563 2.08-.563s1.48.188 2.07.563c.59.375 1.05.901 1.38 1.579.34.678.5 1.472.5 2.381 0 .901-.16 1.689-.5 2.363-.33.675-.79 1.199-1.38 1.574-.59.375-1.28.563-2.07.563Zm0-1.205c.6 0 1.09-.153 1.48-.46.38-.307.67-.71.85-1.21.19-.5.28-1.042.28-1.625 0-.584-.09-1.127-.28-1.631a2.733 2.733 0 0 0-.85-1.221c-.39-.311-.88-.466-1.48-.466s-1.09.155-1.48.466c-.39.31-.67.717-.86 1.221a4.814 4.814 0 0 0-.28 1.631c0 .583.1 1.125.28 1.625.19.5.47.903.86 1.21.39.307.88.46 1.48.46Zm9.52 4.478c-.65 0-1.2-.084-1.67-.25a3.576 3.576 0 0 1-1.9-1.5l1.07-.75c.12.159.28.34.46.545.19.208.44.388.76.54.33.155.76.233 1.28.233.71 0 1.29-.171 1.75-.512.45-.341.68-.875.68-1.602v-1.773h-.11c-.1.159-.24.356-.42.591-.18.231-.44.438-.77.62-.34.178-.79.267-1.36.267-.7 0-1.33-.167-1.89-.5-.56-.334-1-.819-1.33-1.455-.32-.636-.48-1.409-.48-2.318 0-.894.16-1.672.47-2.335.32-.667.75-1.182 1.31-1.546.56-.367 1.21-.551 1.95-.551.57 0 1.02.095 1.35.284.34.186.59.398.77.637.18.234.32.428.42.579h.14v-1.386h1.29v8.977c0 .75-.17 1.36-.51 1.83-.33.473-.79.82-1.36 1.039-.57.224-1.2.336-1.9.336Zm-.04-4.796c.53 0 .99-.123 1.36-.369.37-.246.65-.601.85-1.063.19-.462.29-1.015.29-1.659 0-.629-.1-1.184-.29-1.665-.19-.481-.47-.858-.84-1.13-.37-.273-.83-.409-1.37-.409-.57 0-1.05.144-1.42.431-.38.288-.66.675-.85 1.16-.19.484-.28 1.022-.28 1.613 0 .606.1 1.142.29 1.608.19.462.47.826.85 1.091.38.261.85.392 1.41.392Zm9.79 4.796c-.65 0-1.2-.084-1.67-.25a3.576 3.576 0 0 1-1.9-1.5l1.07-.75c.12.159.28.34.46.545.19.208.44.388.76.54.33.155.76.233 1.28.233.71 0 1.29-.171 1.75-.512.45-.341.68-.875.68-1.602v-1.773h-.11c-.1.159-.24.356-.42.591-.18.231-.44.438-.77.62-.34.178-.79.267-1.36.267-.7 0-1.33-.167-1.89-.5-.56-.334-1-.819-1.33-1.455-.32-.636-.48-1.409-.48-2.318 0-.894.16-1.672.47-2.335.32-.667.75-1.182 1.31-1.546.56-.367 1.21-.551 1.95-.551.57 0 1.02.095 1.35.284.34.186.59.398.77.637.18.234.32.428.42.579h.14v-1.386h1.29v8.977c0 .75-.17 1.36-.51 1.83-.33.473-.79.82-1.36 1.039-.57.224-1.2.336-1.9.336Zm-.04-4.796c.53 0 .99-.123 1.36-.369.37-.246.65-.601.85-1.063.19-.462.29-1.015.29-1.659 0-.629-.1-1.184-.29-1.665-.19-.481-.47-.858-.84-1.13-.37-.273-.83-.409-1.37-.409-.57 0-1.05.144-1.42.431-.38.288-.66.675-.85 1.16-.19.484-.28 1.022-.28 1.613 0 .606.1 1.142.29 1.608.19.462.47.826.85 1.091.38.261.85.392 1.41.392Zm7.61-10.295V606h-1.34v-11.636h1.34Zm6.12 11.818c-.85 0-1.57-.186-2.18-.557-.61-.375-1.07-.898-1.4-1.568-.33-.674-.49-1.459-.49-2.352 0-.894.16-1.682.49-2.364.33-.686.78-1.22 1.37-1.602.59-.387 1.28-.58 2.07-.58.45 0 .9.076 1.35.227.44.152.84.398 1.21.739.36.337.65.784.86 1.341.22.557.33 1.242.33 2.057v.568h-6.73v-1.159h5.37c0-.493-.1-.932-.3-1.318a2.199 2.199 0 0 0-.83-.915c-.36-.224-.78-.335-1.26-.335-.54 0-1 .132-1.39.397-.38.262-.68.603-.89 1.023-.21.421-.31.871-.31 1.352v.773c0 .659.11 1.218.34 1.676.23.455.55.801.96 1.04.41.235.88.352 1.43.352.35 0 .67-.049.95-.147.29-.103.54-.254.74-.455.21-.205.37-.458.49-.761l1.29.363c-.13.44-.36.826-.69 1.159-.32.33-.71.587-1.19.773-.47.182-1 .273-1.59.273Zm16.33-6.955-1.2.341a2.304 2.304 0 0 0-.34-.585 1.592 1.592 0 0 0-.59-.477c-.25-.125-.57-.188-.96-.188-.53 0-.98.123-1.34.37-.35.242-.52.551-.52.926 0 .333.12.596.36.789.24.194.62.355 1.14.483l1.29.319c.78.189 1.36.479 1.75.869.38.386.57.884.57 1.494 0 .5-.14.947-.43 1.341s-.68.705-1.2.932c-.51.227-1.1.341-1.78.341-.89 0-1.63-.193-2.21-.58-.58-.386-.95-.95-1.11-1.693l1.27-.318c.13.47.36.822.69 1.057.34.235.79.352 1.34.352.62 0 1.12-.133 1.49-.398.37-.269.55-.591.55-.966 0-.303-.1-.556-.32-.761-.21-.208-.53-.364-.97-.466l-1.46-.341c-.8-.189-1.38-.483-1.76-.88-.37-.402-.56-.904-.56-1.506 0-.493.14-.928.42-1.307a2.82 2.82 0 0 1 1.14-.892 4.049 4.049 0 0 1 1.65-.324c.86 0 1.54.189 2.03.568.5.379.85.879 1.06 1.5Zm3.52 1.523V606h-1.34v-11.636h1.34v4.272h.11c.21-.45.51-.808.92-1.074.42-.268.97-.403 1.65-.403.6 0 1.12.119 1.56.358.45.235.8.597 1.04 1.085.25.485.38 1.103.38 1.853V606h-1.34v-5.455c0-.693-.18-1.229-.54-1.607-.36-.383-.85-.574-1.49-.574-.44 0-.83.092-1.18.278-.34.186-.61.456-.82.813-.19.356-.29.787-.29 1.295Zm11.66 5.432c-.79 0-1.48-.188-2.08-.563-.59-.375-1.05-.899-1.38-1.574-.33-.674-.5-1.462-.5-2.363 0-.909.17-1.703.5-2.381.33-.678.79-1.204 1.38-1.579.6-.375 1.29-.563 2.08-.563.78 0 1.47.188 2.06.563.6.375 1.06.901 1.39 1.579.33.678.5 1.472.5 2.381 0 .901-.17 1.689-.5 2.363-.33.675-.79 1.199-1.39 1.574-.59.375-1.28.563-2.06.563Zm0-1.205c.59 0 1.09-.153 1.47-.46.39-.307.68-.71.86-1.21.19-.5.28-1.042.28-1.625 0-.584-.09-1.127-.28-1.631a2.676 2.676 0 0 0-.86-1.221c-.38-.311-.88-.466-1.47-.466-.6 0-1.09.155-1.48.466-.39.31-.67.717-.86 1.221a4.814 4.814 0 0 0-.28 1.631c0 .583.1 1.125.28 1.625.19.5.47.903.86 1.21.39.307.88.46 1.48.46Zm7.68 1.023-2.66-8.727h1.41l1.88 6.682h.1l1.86-6.682h1.43l1.84 6.659h.09l1.89-6.659h1.41l-2.66 8.727h-1.32l-1.91-6.705h-.13l-1.91 6.705h-1.32Zm11.02 0v-8.727h1.34V606h-1.34Zm.68-10.182a.942.942 0 0 1-.67-.267.844.844 0 0 1-.28-.642c0-.25.09-.464.28-.642a.942.942 0 0 1 .67-.267c.26 0 .49.089.67.267a.854.854 0 0 1 0 1.284.926.926 0 0 1-.67.267Zm4.46 4.932V606h-1.34v-8.727h1.29v1.363h.12c.2-.443.51-.799.93-1.068.42-.273.95-.409 1.61-.409.59 0 1.11.121 1.55.364.45.238.79.602 1.04 1.091.24.484.37 1.098.37 1.841V606h-1.34v-5.455c0-.685-.18-1.219-.54-1.602-.35-.386-.84-.579-1.46-.579-.43 0-.81.092-1.15.278-.33.186-.6.456-.79.813-.19.356-.29.787-.29 1.295Zm11.54 8.705c-.65 0-1.2-.084-1.67-.25a3.629 3.629 0 0 1-1.17-.648 3.64 3.64 0 0 1-.73-.852l1.07-.75c.12.159.27.34.46.545.19.208.44.388.76.54.33.155.75.233 1.28.233.7 0 1.29-.171 1.74-.512.46-.341.69-.875.69-1.602v-1.773h-.11c-.1.159-.24.356-.42.591-.18.231-.44.438-.77.62-.34.178-.79.267-1.36.267-.7 0-1.33-.167-1.9-.5-.55-.334-.99-.819-1.32-1.455-.32-.636-.48-1.409-.48-2.318 0-.894.16-1.672.47-2.335.31-.667.75-1.182 1.31-1.546.56-.367 1.21-.551 1.95-.551.56 0 1.01.095 1.35.284.33.186.59.398.77.637.18.234.32.428.42.579h.14v-1.386h1.29v8.977c0 .75-.17 1.36-.51 1.83-.34.473-.79.82-1.36 1.039-.57.224-1.2.336-1.9.336Zm-.05-4.796c.54 0 1-.123 1.37-.369.37-.246.65-.601.84-1.063.2-.462.29-1.015.29-1.659 0-.629-.09-1.184-.28-1.665-.19-.481-.47-.858-.84-1.13-.37-.273-.83-.409-1.38-.409-.56 0-1.04.144-1.42.431-.37.288-.65.675-.84 1.16-.19.484-.28 1.022-.28 1.613 0 .606.09 1.142.28 1.608.2.462.48.826.86 1.091.37.261.84.392 1.4.392Zm10.78 1.341v-8.727h1.34V606h-1.34Zm.68-10.182a.966.966 0 0 1-.68-.267.88.88 0 0 1-.28-.642c0-.25.1-.464.28-.642a.966.966 0 0 1 .68-.267c.26 0 .48.089.67.267.19.178.28.392.28.642s-.09.464-.28.642a.942.942 0 0 1-.67.267Zm6.91 1.455v1.136h-4.52v-1.136h4.52Zm-3.2-2.091h1.34v8.318c0 .379.05.663.16.852.11.186.26.311.43.375.18.061.37.091.57.091.14 0 .26-.007.36-.023l.23-.045.27 1.205a2.8 2.8 0 0 1-.38.102c-.16.038-.37.057-.62.057-.38 0-.75-.082-1.11-.245a2.23 2.23 0 0 1-.9-.744c-.24-.333-.35-.754-.35-1.261v-8.682Zm6.19 10.909c-.28 0-.52-.1-.72-.301a.988.988 0 0 1-.3-.722c0-.28.1-.521.3-.721a.98.98 0 0 1 .72-.302c.28 0 .52.101.73.302.2.2.3.441.3.721 0 .186-.05.356-.15.512-.09.155-.21.28-.36.375-.16.09-.33.136-.52.136Z"/><path fill="#888" d="M465.494 259.455V306h-5.636v-40.636h-.273l-11.363 7.545v-5.727l11.636-7.727h5.636ZM478.881 306v-4.091l15.363-16.818c1.803-1.97 3.288-3.682 4.455-5.136 1.167-1.47 2.03-2.849 2.591-4.137.576-1.303.863-2.666.863-4.091 0-1.636-.394-3.053-1.181-4.25-.773-1.197-1.834-2.121-3.182-2.772-1.349-.652-2.864-.978-4.546-.978-1.788 0-3.348.371-4.682 1.114a7.67 7.67 0 0 0-3.068 3.068c-.712 1.318-1.068 2.864-1.068 4.636h-5.364c0-2.727.629-5.121 1.887-7.181 1.257-2.061 2.97-3.667 5.136-4.819 2.182-1.151 4.629-1.727 7.341-1.727 2.727 0 5.144.576 7.25 1.727 2.106 1.152 3.758 2.705 4.955 4.66 1.197 1.954 1.795 4.128 1.795 6.522 0 1.712-.31 3.387-.932 5.023-.606 1.621-1.666 3.432-3.182 5.432-1.5 1.985-3.583 4.409-6.25 7.273l-10.454 11.181V301h21.636v5h-29.363Zm53.931.636c-3.424 0-6.34-.931-8.75-2.795-2.409-1.879-4.249-4.599-5.522-8.159-1.273-3.576-1.909-7.894-1.909-12.955 0-5.03.636-9.325 1.909-12.886 1.288-3.576 3.136-6.303 5.545-8.182 2.424-1.894 5.334-2.841 8.727-2.841 3.394 0 6.296.947 8.705 2.841 2.424 1.879 4.273 4.606 5.545 8.182 1.288 3.561 1.932 7.856 1.932 12.886 0 5.061-.636 9.379-1.909 12.955-1.273 3.56-3.113 6.28-5.523 8.159-2.409 1.864-5.325 2.795-8.75 2.795Zm0-5c3.394 0 6.031-1.636 7.91-4.909 1.878-3.272 2.818-7.939 2.818-14 0-4.03-.432-7.462-1.296-10.295-.848-2.834-2.075-4.993-3.682-6.477-1.59-1.485-3.507-2.228-5.75-2.228-3.363 0-5.992 1.659-7.886 4.978-1.894 3.303-2.841 7.977-2.841 14.022 0 4.031.424 7.455 1.273 10.273.848 2.818 2.068 4.962 3.659 6.432 1.606 1.47 3.538 2.204 5.795 2.204Zm40 5c-3.424 0-6.34-.931-8.75-2.795-2.409-1.879-4.249-4.599-5.522-8.159-1.273-3.576-1.909-7.894-1.909-12.955 0-5.03.636-9.325 1.909-12.886 1.288-3.576 3.136-6.303 5.545-8.182 2.424-1.894 5.334-2.841 8.727-2.841 3.394 0 6.296.947 8.705 2.841 2.424 1.879 4.273 4.606 5.545 8.182 1.288 3.561 1.932 7.856 1.932 12.886 0 5.061-.636 9.379-1.909 12.955-1.273 3.56-3.113 6.28-5.523 8.159-2.409 1.864-5.325 2.795-8.75 2.795Zm0-5c3.394 0 6.031-1.636 7.91-4.909 1.878-3.272 2.818-7.939 2.818-14 0-4.03-.432-7.462-1.296-10.295-.848-2.834-2.075-4.993-3.682-6.477-1.59-1.485-3.507-2.228-5.75-2.228-3.363 0-5.992 1.659-7.886 4.978-1.894 3.303-2.841 7.977-2.841 14.022 0 4.031.424 7.455 1.273 10.273.848 2.818 2.068 4.962 3.659 6.432 1.606 1.47 3.538 2.204 5.795 2.204Zm52.182-4L599.358 272l3.454-3.455 25.637 25.637-3.455 3.454Zm-22.182 0-3.454-3.454 25.636-25.637 3.455 3.455-25.637 25.636Zm52.461 9c-1.909-.03-3.818-.394-5.728-1.091-1.909-.697-3.651-1.871-5.227-3.522-1.576-1.667-2.841-3.917-3.795-6.75-.955-2.849-1.432-6.425-1.432-10.728 0-4.121.386-7.772 1.159-10.954.773-3.197 1.894-5.886 3.364-8.068 1.469-2.197 3.242-3.864 5.318-5 2.091-1.137 4.447-1.705 7.068-1.705 2.606 0 4.924.523 6.955 1.568 2.045 1.031 3.712 2.47 5 4.319 1.287 1.848 2.121 3.977 2.5 6.386h-5.546c-.515-2.091-1.515-3.826-3-5.205-1.485-1.378-3.454-2.068-5.909-2.068-3.606 0-6.447 1.568-8.523 4.705-2.06 3.136-3.098 7.538-3.113 13.204h.363a13.678 13.678 0 0 1 6.932-5.432c1.424-.5 2.932-.75 4.523-.75 2.666 0 5.106.667 7.318 2 2.212 1.319 3.985 3.144 5.318 5.478 1.334 2.318 2 4.977 2 7.977 0 2.879-.644 5.515-1.932 7.909-1.288 2.379-3.098 4.273-5.431 5.682-2.319 1.394-5.046 2.076-8.182 2.045Zm0-5c1.909 0 3.621-.477 5.136-1.431a10.248 10.248 0 0 0 3.614-3.841c.894-1.606 1.341-3.394 1.341-5.364 0-1.924-.432-3.674-1.296-5.25a9.873 9.873 0 0 0-3.523-3.795c-1.484-.94-3.181-1.41-5.09-1.41-1.44 0-2.781.288-4.023.864a10.375 10.375 0 0 0-3.273 2.318 11.217 11.217 0 0 0-2.182 3.387 10.134 10.134 0 0 0-.795 3.977c0 1.848.432 3.576 1.295 5.182a10.669 10.669 0 0 0 3.591 3.886c1.53.985 3.265 1.477 5.205 1.477Zm40.21 5c-3 0-5.674-.515-8.023-1.545-2.333-1.03-4.189-2.462-5.568-4.296-1.364-1.848-2.106-3.992-2.227-6.431h5.727c.121 1.5.636 2.795 1.546 3.886.909 1.076 2.098 1.909 3.568 2.5 1.469.591 3.098.886 4.886.886 2 0 3.773-.348 5.318-1.045 1.546-.697 2.758-1.667 3.637-2.909.878-1.243 1.318-2.682 1.318-4.318 0-1.712-.424-3.22-1.273-4.523-.848-1.318-2.091-2.349-3.727-3.091-1.637-.742-3.637-1.114-6-1.114h-3.727v-5h3.727c1.848 0 3.469-.333 4.863-1 1.41-.666 2.508-1.606 3.296-2.818.803-1.212 1.204-2.636 1.204-4.273 0-1.575-.348-2.947-1.045-4.113-.697-1.167-1.682-2.076-2.955-2.727-1.257-.652-2.742-.978-4.454-.978-1.606 0-3.121.296-4.546.887-1.409.575-2.56 1.416-3.454 2.522-.894 1.091-1.379 2.409-1.455 3.955h-5.454c.091-2.439.826-4.576 2.204-6.409 1.379-1.849 3.182-3.288 5.409-4.318 2.243-1.031 4.705-1.546 7.387-1.546 2.879 0 5.348.584 7.409 1.75 2.06 1.152 3.644 2.674 4.75 4.568a11.963 11.963 0 0 1 1.659 6.137c0 2.621-.689 4.856-2.068 6.704-1.364 1.849-3.22 3.129-5.568 3.841v.364c2.939.485 5.234 1.735 6.886 3.75 1.651 2 2.477 4.477 2.477 7.432 0 2.53-.689 4.803-2.068 6.818-1.364 2-3.227 3.576-5.591 4.727-2.363 1.152-5.053 1.727-8.068 1.727Zm40.205 0c-3.425 0-6.341-.931-8.75-2.795-2.41-1.879-4.25-4.599-5.523-8.159-1.273-3.576-1.909-7.894-1.909-12.955 0-5.03.636-9.325 1.909-12.886 1.288-3.576 3.136-6.303 5.545-8.182 2.424-1.894 5.334-2.841 8.728-2.841 3.393 0 6.295.947 8.704 2.841 2.424 1.879 4.273 4.606 5.546 8.182 1.287 3.561 1.931 7.856 1.931 12.886 0 5.061-.636 9.379-1.909 12.955-1.272 3.56-3.113 6.28-5.522 8.159-2.41 1.864-5.326 2.795-8.75 2.795Zm0-5c3.393 0 6.03-1.636 7.909-4.909 1.878-3.272 2.818-7.939 2.818-14 0-4.03-.432-7.462-1.296-10.295-.848-2.834-2.075-4.993-3.681-6.477-1.591-1.485-3.508-2.228-5.75-2.228-3.364 0-5.993 1.659-7.887 4.978-1.894 3.303-2.841 7.977-2.841 14.022 0 4.031.424 7.455 1.273 10.273.848 2.818 2.068 4.962 3.659 6.432 1.606 1.47 3.538 2.204 5.796 2.204Zm-173.702 21.819h5.636v33.272c0 2.97-.545 5.493-1.636 7.568-1.091 2.076-2.629 3.652-4.614 4.728-1.985 1.075-4.326 1.613-7.023 1.613-2.545 0-4.81-.462-6.795-1.386-1.985-.939-3.545-2.273-4.682-4-1.136-1.727-1.704-3.78-1.704-6.159h5.545c0 1.318.326 2.47.977 3.454.667.97 1.576 1.728 2.728 2.273 1.151.546 2.462.818 3.931.818 1.622 0 3-.341 4.137-1.022 1.136-.682 2-1.682 2.591-3 .606-1.334.909-2.962.909-4.887v-33.272ZM578.918 370v-46.545h15.727c3.651 0 6.636.659 8.954 1.977 2.334 1.303 4.061 3.068 5.182 5.295 1.121 2.228 1.682 4.712 1.682 7.455 0 2.742-.561 5.235-1.682 7.477-1.106 2.243-2.818 4.03-5.136 5.364-2.318 1.318-5.288 1.977-8.909 1.977h-11.273v-5h11.091c2.5 0 4.508-.432 6.023-1.295 1.515-.864 2.613-2.031 3.295-3.5.697-1.485 1.046-3.16 1.046-5.023 0-1.864-.349-3.53-1.046-5-.682-1.47-1.788-2.621-3.318-3.455-1.53-.848-3.561-1.272-6.091-1.272h-9.909V370h-5.636Zm72.443-32c-.5-1.53-1.159-2.902-1.977-4.114a12.73 12.73 0 0 0-2.887-3.136 12.086 12.086 0 0 0-3.773-1.977c-1.409-.455-2.954-.682-4.636-.682-2.758 0-5.265.712-7.523 2.136-2.257 1.425-4.053 3.523-5.386 6.296-1.333 2.772-2 6.174-2 10.204 0 4.031.674 7.432 2.023 10.205 1.348 2.773 3.174 4.871 5.477 6.295 2.303 1.425 4.894 2.137 7.773 2.137 2.666 0 5.015-.569 7.045-1.705 2.046-1.151 3.637-2.773 4.773-4.864 1.151-2.106 1.727-4.583 1.727-7.431l1.727.363h-14v-5h17.728v5c0 3.834-.818 7.167-2.455 10-1.621 2.834-3.863 5.031-6.727 6.591-2.849 1.546-6.121 2.318-9.818 2.318-4.122 0-7.743-.969-10.864-2.909-3.106-1.939-5.53-4.697-7.273-8.272-1.727-3.576-2.591-7.819-2.591-12.728 0-3.682.493-6.992 1.478-9.932 1-2.954 2.409-5.469 4.227-7.545a18.48 18.48 0 0 1 6.455-4.773c2.484-1.106 5.219-1.659 8.204-1.659 2.455 0 4.742.371 6.864 1.114 2.136.727 4.038 1.765 5.704 3.113a17.728 17.728 0 0 1 4.205 4.796c1.121 1.848 1.894 3.901 2.318 6.159h-5.818Z"/><path fill="#fff" d="M0 630h1200v284H0z"/><path fill="#000" d="M35.034 695v-34.909h23.523v6.085H42.415v8.318h14.932v6.086H42.415v8.335h16.21V695h-23.59Zm35.322-26.182 4.807 9.154 4.927-9.154h7.448l-7.585 13.091L87.743 695h-7.415l-5.165-9.051-5.08 9.051h-7.5l7.773-13.091-7.5-13.091h7.5Zm28.82 26.676c-1.67 0-3.159-.289-4.466-.869-1.307-.591-2.34-1.46-3.102-2.608-.75-1.159-1.125-2.602-1.125-4.329 0-1.455.267-2.677.801-3.665a6.492 6.492 0 0 1 2.182-2.387c.92-.602 1.966-1.056 3.136-1.363a23.886 23.886 0 0 1 3.716-.648 94.63 94.63 0 0 0 3.682-.443c.932-.148 1.608-.364 2.028-.648.421-.284.631-.704.631-1.261v-.103c0-1.079-.341-1.914-1.023-2.505-.67-.591-1.625-.887-2.863-.887-1.307 0-2.347.29-3.12.87-.772.568-1.284 1.284-1.534 2.147l-6.716-.545c.341-1.591 1.012-2.966 2.012-4.125 1-1.17 2.29-2.068 3.87-2.693 1.59-.637 3.431-.955 5.522-.955 1.454 0 2.846.171 4.176.512 1.341.341 2.528.869 3.562 1.585a7.697 7.697 0 0 1 2.472 2.761c.602 1.114.903 2.449.903 4.006V695h-6.886v-3.631h-.204a7.383 7.383 0 0 1-1.688 2.165c-.704.614-1.551 1.097-2.54 1.449-.988.341-2.13.511-3.426.511Zm2.08-5.011c1.068 0 2.011-.21 2.829-.631.818-.432 1.46-1.011 1.926-1.738.466-.728.699-1.552.699-2.472v-2.778c-.227.147-.54.284-.937.409a17.81 17.81 0 0 1-1.313.324c-.488.09-.977.176-1.466.255-.488.068-.932.131-1.329.188-.852.125-1.597.324-2.233.596-.636.273-1.13.642-1.483 1.108-.352.455-.528 1.023-.528 1.705 0 .989.357 1.744 1.073 2.267.728.511 1.648.767 2.762.767ZM119.554 695v-26.182h6.92v4.62h.307c.546-1.535 1.455-2.745 2.728-3.631 1.272-.887 2.795-1.33 4.568-1.33 1.795 0 3.324.449 4.585 1.347 1.261.886 2.102 2.091 2.523 3.614h.272c.534-1.5 1.5-2.699 2.898-3.597 1.409-.909 3.074-1.364 4.994-1.364 2.444 0 4.427.779 5.949 2.335 1.534 1.546 2.301 3.739 2.301 6.58V695h-7.244v-16.176c0-1.455-.386-2.546-1.159-3.273-.773-.727-1.739-1.091-2.898-1.091-1.318 0-2.346.421-3.085 1.262-.739.829-1.108 1.926-1.108 3.289V695h-7.04v-16.33c0-1.284-.369-2.306-1.108-3.068-.727-.761-1.687-1.142-2.88-1.142-.807 0-1.534.205-2.182.614-.636.398-1.142.96-1.517 1.687-.375.716-.563 1.557-.563 2.523V695h-7.261Zm43.781 9.818v-36h7.159v4.398h.324c.318-.705.779-1.421 1.381-2.148.614-.738 1.409-1.352 2.386-1.841.989-.5 2.216-.75 3.682-.75 1.909 0 3.671.5 5.284 1.5 1.614.989 2.904 2.483 3.869 4.483.966 1.989 1.449 4.483 1.449 7.483 0 2.921-.471 5.387-1.414 7.398-.932 2-2.205 3.517-3.819 4.551-1.602 1.023-3.397 1.534-5.386 1.534-1.409 0-2.608-.233-3.597-.699-.977-.466-1.778-1.051-2.403-1.755-.625-.716-1.102-1.438-1.432-2.165h-.221v14.011h-7.262Zm7.108-22.909c0 1.557.216 2.915.648 4.074.432 1.159 1.057 2.062 1.875 2.71.818.637 1.812.955 2.983.955 1.182 0 2.182-.324 3-.972.818-.659 1.437-1.568 1.858-2.727.432-1.171.648-2.517.648-4.04 0-1.511-.211-2.841-.631-3.989-.421-1.147-1.04-2.045-1.858-2.693-.818-.647-1.824-.971-3.017-.971-1.182 0-2.182.312-3 .937-.807.625-1.426 1.512-1.858 2.659-.432 1.148-.648 2.5-.648 4.057Zm30.529-21.818V695h-7.262v-34.909h7.262Zm17.748 35.42c-2.693 0-5.011-.545-6.954-1.636-1.932-1.102-3.421-2.659-4.466-4.67-1.046-2.023-1.568-4.415-1.568-7.177 0-2.693.522-5.056 1.568-7.09 1.045-2.035 2.517-3.62 4.414-4.756 1.91-1.137 4.148-1.705 6.716-1.705 1.728 0 3.336.279 4.824.835 1.5.546 2.807 1.37 3.921 2.472 1.125 1.102 2 2.489 2.625 4.159.625 1.659.937 3.602.937 5.83v1.994h-22.108v-4.5h15.273c0-1.045-.227-1.972-.682-2.778a4.874 4.874 0 0 0-1.892-1.892c-.795-.466-1.721-.699-2.778-.699-1.103 0-2.08.255-2.932.767-.841.5-1.5 1.176-1.977 2.028-.478.841-.722 1.779-.733 2.813v4.278c0 1.296.238 2.415.716 3.358a5.242 5.242 0 0 0 2.062 2.182c.886.511 1.938.767 3.153.767.807 0 1.546-.114 2.216-.341a4.585 4.585 0 0 0 1.722-1.023 4.445 4.445 0 0 0 1.091-1.67l6.716.443c-.341 1.614-1.04 3.023-2.097 4.227-1.045 1.193-2.398 2.125-4.057 2.796-1.647.659-3.551.988-5.71.988Zm28.002-.511v-34.909h23.522v6.085h-16.142v8.318h14.932v6.086h-14.932v8.335h16.21V695h-23.59Zm51.038-18.716-6.648.409a3.433 3.433 0 0 0-.733-1.534c-.375-.466-.869-.835-1.483-1.108-.602-.284-1.324-.426-2.164-.426-1.125 0-2.074.239-2.847.716-.773.466-1.159 1.091-1.159 1.875 0 .625.25 1.153.75 1.585.5.432 1.358.779 2.574 1.04l4.738.954c2.546.523 4.444 1.364 5.694 2.523s1.875 2.682 1.875 4.568c0 1.716-.506 3.222-1.518 4.517-1 1.296-2.375 2.307-4.125 3.035-1.738.715-3.744 1.073-6.017 1.073-3.465 0-6.227-.721-8.284-2.164-2.045-1.455-3.244-3.432-3.596-5.932l7.142-.375c.216 1.057.738 1.863 1.568 2.42.83.546 1.892.818 3.187.818 1.273 0 2.296-.244 3.069-.733.784-.5 1.181-1.142 1.193-1.926-.012-.659-.29-1.199-.835-1.619-.546-.432-1.387-.761-2.523-.989l-4.534-.903c-2.557-.511-4.46-1.398-5.71-2.659-1.239-1.262-1.858-2.869-1.858-4.824 0-1.682.454-3.131 1.363-4.347.921-1.216 2.21-2.153 3.87-2.812 1.67-.659 3.625-.989 5.863-.989 3.307 0 5.909.699 7.807 2.097 1.909 1.398 3.023 3.301 3.341 5.71Zm26.953 0-6.648.409a3.433 3.433 0 0 0-.733-1.534c-.375-.466-.869-.835-1.483-1.108-.602-.284-1.323-.426-2.164-.426-1.125 0-2.074.239-2.847.716-.773.466-1.159 1.091-1.159 1.875 0 .625.25 1.153.75 1.585.5.432 1.358.779 2.574 1.04l4.738.954c2.546.523 4.444 1.364 5.694 2.523s1.875 2.682 1.875 4.568c0 1.716-.506 3.222-1.517 4.517-1 1.296-2.375 2.307-4.125 3.035-1.739.715-3.745 1.073-6.017 1.073-3.466 0-6.228-.721-8.285-2.164-2.045-1.455-3.244-3.432-3.596-5.932l7.142-.375c.216 1.057.739 1.863 1.568 2.42.83.546 1.892.818 3.188.818 1.272 0 2.295-.244 3.068-.733.784-.5 1.182-1.142 1.193-1.926-.011-.659-.29-1.199-.835-1.619-.546-.432-1.387-.761-2.523-.989l-4.534-.903c-2.557-.511-4.46-1.398-5.71-2.659-1.239-1.262-1.858-2.869-1.858-4.824 0-1.682.454-3.131 1.363-4.347.921-1.216 2.211-2.153 3.87-2.812 1.67-.659 3.625-.989 5.863-.989 3.307 0 5.909.699 7.807 2.097 1.909 1.398 3.023 3.301 3.341 5.71Zm12.635 19.21c-1.67 0-3.159-.289-4.466-.869-1.307-.591-2.341-1.46-3.102-2.608-.75-1.159-1.125-2.602-1.125-4.329 0-1.455.267-2.677.801-3.665a6.486 6.486 0 0 1 2.182-2.387c.92-.602 1.966-1.056 3.136-1.363a23.9 23.9 0 0 1 3.716-.648 94.63 94.63 0 0 0 3.682-.443c.932-.148 1.608-.364 2.028-.648.421-.284.631-.704.631-1.261v-.103c0-1.079-.341-1.914-1.023-2.505-.67-.591-1.625-.887-2.863-.887-1.307 0-2.347.29-3.12.87-.772.568-1.284 1.284-1.534 2.147l-6.716-.545c.341-1.591 1.012-2.966 2.012-4.125 1-1.17 2.289-2.068 3.869-2.693 1.591-.637 3.432-.955 5.523-.955 1.454 0 2.846.171 4.176.512 1.341.341 2.528.869 3.562 1.585a7.697 7.697 0 0 1 2.472 2.761c.602 1.114.903 2.449.903 4.006V695h-6.886v-3.631h-.205a7.38 7.38 0 0 1-1.687 2.165c-.705.614-1.551 1.097-2.54 1.449-.988.341-2.131.511-3.426.511Zm2.08-5.011c1.068 0 2.011-.21 2.829-.631.818-.432 1.46-1.011 1.926-1.738.466-.728.699-1.552.699-2.472v-2.778c-.227.147-.54.284-.937.409a17.81 17.81 0 0 1-1.313.324c-.489.09-.977.176-1.466.255-.488.068-.932.131-1.329.188-.853.125-1.597.324-2.233.596-.637.273-1.131.642-1.483 1.108-.353.455-.529 1.023-.529 1.705 0 .989.358 1.744 1.074 2.267.727.511 1.648.767 2.762.767Zm21.843 14.335c-.92 0-1.784-.074-2.591-.221-.795-.137-1.454-.313-1.977-.529l1.636-5.42c.853.261 1.62.403 2.302.426.693.023 1.289-.136 1.789-.477.512-.341.927-.921 1.245-1.739l.426-1.108-9.392-26.932h7.636l5.421 19.227h.272l5.472-19.227h7.687l-10.176 29.012c-.488 1.409-1.153 2.636-1.994 3.681a8.18 8.18 0 0 1-3.153 2.438c-1.273.579-2.807.869-4.603.869ZM36.227 719.545V737h-2.113v-17.455h2.113Zm5.977 9.58V737h-2.011v-13.091h1.943v2.046h.17a3.742 3.742 0 0 1 1.398-1.603c.625-.409 1.432-.613 2.42-.613.887 0 1.662.181 2.327.545.665.358 1.182.904 1.551 1.636.37.728.554 1.648.554 2.762V737h-2.011v-8.182c0-1.028-.267-1.829-.801-2.403-.535-.58-1.267-.87-2.2-.87-.641 0-1.215.14-1.72.418-.5.278-.896.685-1.185 1.219-.29.534-.435 1.182-.435 1.943ZM63.947 737l-3.988-13.091h2.113l2.83 10.023h.136l2.796-10.023h2.147l2.762 9.989h.136l2.83-9.989h2.113L73.834 737h-1.978l-2.863-10.057h-.205L65.925 737h-1.978Zm18.546-7.875V737h-2.011v-17.455h2.01v6.41h.171a3.692 3.692 0 0 1 1.381-1.611c.62-.404 1.443-.605 2.472-.605.892 0 1.673.179 2.343.537.67.352 1.19.894 1.56 1.627.375.728.563 1.654.563 2.779V737H88.97v-8.182c0-1.04-.27-1.844-.81-2.412-.534-.574-1.275-.861-2.224-.861-.659 0-1.25.14-1.773.418a3.05 3.05 0 0 0-1.227 1.219c-.295.534-.443 1.182-.443 1.943ZM94.66 737v-13.091h2.012V737H94.66Zm1.023-15.273a1.43 1.43 0 0 1-1.014-.4 1.287 1.287 0 0 1-.418-.963c0-.375.14-.696.418-.963a1.43 1.43 0 0 1 1.014-.401c.392 0 .727.134 1.006.401.284.267.426.588.426.963s-.142.696-.426.963a1.4 1.4 0 0 1-1.006.4Zm9.991 15.546c-1.228 0-2.284-.29-3.171-.87-.886-.579-1.568-1.377-2.045-2.394-.478-1.018-.716-2.179-.716-3.486 0-1.33.244-2.503.733-3.52.494-1.023 1.182-1.821 2.062-2.395.887-.58 1.921-.869 3.103-.869.92 0 1.75.17 2.488.511a4.766 4.766 0 0 1 1.816 1.432 4.46 4.46 0 0 1 .877 2.148h-2.011c-.153-.597-.494-1.125-1.023-1.586-.522-.466-1.227-.699-2.113-.699-.784 0-1.472.205-2.063.614-.585.403-1.042.975-1.372 1.713-.324.733-.486 1.594-.486 2.583 0 1.011.159 1.892.478 2.642.323.75.778 1.332 1.363 1.747.591.415 1.284.622 2.08.622.522 0 .997-.091 1.423-.273a2.933 2.933 0 0 0 1.082-.784 3 3 0 0 0 .631-1.227h2.011a4.647 4.647 0 0 1-.843 2.088c-.443.614-1.032 1.102-1.765 1.466-.727.358-1.573.537-2.539.537Zm10.099-8.148V737h-2.011v-17.455h2.011v6.41h.171a3.69 3.69 0 0 1 1.38-1.611c.62-.404 1.443-.605 2.472-.605.892 0 1.673.179 2.344.537.67.352 1.19.894 1.559 1.627.375.728.563 1.654.563 2.779V737h-2.012v-8.182c0-1.04-.269-1.844-.809-2.412-.534-.574-1.276-.861-2.225-.861-.659 0-1.25.14-1.772.418a3.051 3.051 0 0 0-1.228 1.219c-.295.534-.443 1.182-.443 1.943Zm28.191-2.284-1.807.511a3.369 3.369 0 0 0-.502-.878 2.444 2.444 0 0 0-.887-.715c-.375-.188-.855-.282-1.44-.282-.801 0-1.469.185-2.003.554-.528.364-.793.827-.793 1.389 0 .5.182.895.546 1.185.363.29.932.531 1.704.725l1.944.477c1.17.284 2.042.719 2.616 1.304.574.579.861 1.326.861 2.241 0 .75-.216 1.421-.648 2.012-.426.591-1.023 1.056-1.79 1.397-.767.341-1.659.512-2.676.512-1.335 0-2.44-.29-3.315-.87-.875-.579-1.429-1.426-1.662-2.539l1.909-.478c.182.705.526 1.233 1.031 1.586.512.352 1.179.528 2.003.528.938 0 1.682-.199 2.233-.597.557-.403.835-.886.835-1.448 0-.455-.159-.836-.477-1.143-.318-.312-.807-.545-1.466-.698l-2.182-.512c-1.199-.284-2.079-.724-2.642-1.321-.557-.602-.835-1.355-.835-2.258 0-.739.207-1.392.622-1.961.421-.568.992-1.014 1.713-1.338.728-.323 1.551-.485 2.472-.485 1.295 0 2.312.284 3.051.852.744.568 1.273 1.318 1.585 2.25Zm8.585 10.432c-1.182 0-2.219-.282-3.111-.844-.886-.563-1.58-1.349-2.08-2.361-.494-1.011-.741-2.193-.741-3.545 0-1.364.247-2.554.741-3.571.5-1.017 1.194-1.807 2.08-2.37.892-.562 1.929-.843 3.111-.843 1.182 0 2.216.281 3.102.843.892.563 1.585 1.353 2.08 2.37.5 1.017.75 2.207.75 3.571 0 1.352-.25 2.534-.75 3.545-.495 1.012-1.188 1.798-2.08 2.361-.886.562-1.92.844-3.102.844Zm0-1.807c.897 0 1.636-.23 2.216-.69.579-.461 1.008-1.066 1.287-1.816.278-.75.417-1.562.417-2.437 0-.875-.139-1.691-.417-2.446-.279-.756-.708-1.367-1.287-1.833-.58-.466-1.319-.699-2.216-.699-.898 0-1.637.233-2.216.699-.58.466-1.009 1.077-1.287 1.833a7.005 7.005 0 0 0-.418 2.446c0 .875.139 1.687.418 2.437.278.75.707 1.355 1.287 1.816.579.46 1.318.69 2.216.69Zm9.002 1.534v-13.091h1.943v2.046h.17a3.29 3.29 0 0 1 1.322-1.628c.607-.392 1.338-.588 2.19-.588.863 0 1.582.196 2.156.588.58.386 1.031.929 1.355 1.628h.137a3.805 3.805 0 0 1 1.508-1.611c.671-.404 1.475-.605 2.412-.605 1.17 0 2.128.366 2.872 1.099.745.727 1.117 1.861 1.117 3.401V737h-2.012v-8.761c0-.966-.264-1.657-.792-2.071-.529-.415-1.151-.623-1.867-.623-.92 0-1.633.279-2.139.836-.506.551-.759 1.25-.759 2.096V737h-2.045v-8.966c0-.744-.241-1.344-.724-1.798-.483-.46-1.106-.691-1.867-.691-.523 0-1.011.14-1.466.418a3.157 3.157 0 0 0-1.091 1.159c-.272.489-.409 1.054-.409 1.696V737h-2.011Zm26.348.273c-1.262 0-2.35-.279-3.264-.835-.909-.563-1.611-1.347-2.105-2.353-.489-1.011-.733-2.187-.733-3.528 0-1.341.244-2.523.733-3.546.494-1.028 1.181-1.829 2.062-2.403.886-.58 1.92-.869 3.102-.869.682 0 1.355.113 2.02.341.665.227 1.27.596 1.816 1.108.545.505.98 1.176 1.304 2.011.323.835.485 1.863.485 3.085v.852h-10.091v-1.738h8.046c0-.739-.148-1.398-.443-1.978a3.349 3.349 0 0 0-1.245-1.372c-.534-.335-1.164-.503-1.892-.503-.801 0-1.494.199-2.079.597a3.914 3.914 0 0 0-1.338 1.534 4.503 4.503 0 0 0-.469 2.029v1.159c0 .988.17 1.826.511 2.514.347.682.827 1.202 1.441 1.56.613.352 1.326.528 2.139.528.528 0 1.006-.074 1.432-.222.431-.153.804-.38 1.116-.682.313-.306.554-.687.725-1.142l1.943.546a4.326 4.326 0 0 1-1.031 1.739c-.483.494-1.08.88-1.79 1.159-.71.272-1.509.409-2.395.409Zm15.23-.273v-13.091h2.011V737h-2.011Zm1.023-15.273c-.392 0-.73-.133-1.015-.4a1.288 1.288 0 0 1-.417-.963c0-.375.139-.696.417-.963a1.434 1.434 0 0 1 1.015-.401 1.4 1.4 0 0 1 1.005.401c.284.267.427.588.427.963s-.143.696-.427.963c-.278.267-.613.4-1.005.4Zm6.684 7.398V737h-2.012v-13.091h1.943v2.046h.171a3.744 3.744 0 0 1 1.398-1.603c.625-.409 1.431-.613 2.42-.613.886 0 1.662.181 2.327.545.665.358 1.182.904 1.551 1.636.369.728.554 1.648.554 2.762V737h-2.011v-8.182c0-1.028-.267-1.829-.802-2.403-.534-.58-1.267-.87-2.198-.87-.642 0-1.216.14-1.722.418-.5.278-.895.685-1.185 1.219-.289.534-.434 1.182-.434 1.943Zm17.857-5.216v1.705h-7.057v-1.705h7.057ZM223.751 737v-14.898c0-.75.176-1.375.528-1.875.352-.5.81-.875 1.372-1.125a4.342 4.342 0 0 1 1.782-.375c.494 0 .897.04 1.21.12.312.079.545.153.699.221l-.58 1.739a9.602 9.602 0 0 0-.426-.128 2.587 2.587 0 0 0-.699-.077c-.665 0-1.145.168-1.44.503-.29.335-.435.827-.435 1.475V737h-2.011Zm12.541.273c-1.182 0-2.219-.282-3.111-.844-.886-.563-1.579-1.349-2.079-2.361-.495-1.011-.742-2.193-.742-3.545 0-1.364.247-2.554.742-3.571.5-1.017 1.193-1.807 2.079-2.37.892-.562 1.929-.843 3.111-.843 1.182 0 2.216.281 3.102.843.892.563 1.585 1.353 2.08 2.37.5 1.017.75 2.207.75 3.571 0 1.352-.25 2.534-.75 3.545-.495 1.012-1.188 1.798-2.08 2.361-.886.562-1.92.844-3.102.844Zm0-1.807c.898 0 1.636-.23 2.216-.69.579-.461 1.008-1.066 1.287-1.816.278-.75.417-1.562.417-2.437 0-.875-.139-1.691-.417-2.446-.279-.756-.708-1.367-1.287-1.833-.58-.466-1.318-.699-2.216-.699-.898 0-1.636.233-2.216.699-.58.466-1.009 1.077-1.287 1.833a7.028 7.028 0 0 0-.418 2.446c0 .875.14 1.687.418 2.437.278.75.707 1.355 1.287 1.816.58.46 1.318.69 2.216.69Zm9.002 1.534v-13.091h1.943v1.977h.137c.238-.647.67-1.173 1.295-1.576a3.81 3.81 0 0 1 2.114-.605c.147 0 .332.002.554.008.221.006.389.014.502.026v2.045a5.863 5.863 0 0 0-.468-.077 4.71 4.71 0 0 0-.759-.059c-.636 0-1.204.133-1.704.4a3.015 3.015 0 0 0-1.176 1.091c-.285.46-.427.986-.427 1.577V737h-2.011Zm8.93 0v-13.091h1.943v2.046h.17a3.289 3.289 0 0 1 1.321-1.628c.608-.392 1.338-.588 2.191-.588.863 0 1.582.196 2.156.588.58.386 1.031.929 1.355 1.628h.136a3.813 3.813 0 0 1 1.509-1.611c.67-.404 1.474-.605 2.412-.605 1.17 0 2.128.366 2.872 1.099.744.727 1.117 1.861 1.117 3.401V737h-2.012v-8.761c0-.966-.264-1.657-.792-2.071-.529-.415-1.151-.623-1.867-.623-.92 0-1.633.279-2.139.836-.506.551-.759 1.25-.759 2.096V737h-2.045v-8.966c0-.744-.242-1.344-.725-1.798-.482-.46-1.105-.691-1.866-.691-.523 0-1.011.14-1.466.418a3.157 3.157 0 0 0-1.091 1.159c-.273.489-.409 1.054-.409 1.696V737h-2.011Zm24.711.307c-.829 0-1.582-.156-2.258-.469a3.882 3.882 0 0 1-1.611-1.372c-.398-.602-.597-1.33-.597-2.182 0-.75.148-1.358.444-1.824a3.13 3.13 0 0 1 1.184-1.108 6.21 6.21 0 0 1 1.637-.596 19.495 19.495 0 0 1 1.815-.324c.795-.102 1.44-.179 1.935-.23.5-.057.863-.151 1.091-.282.233-.13.349-.358.349-.681v-.069c0-.84-.23-1.494-.69-1.96-.455-.466-1.145-.699-2.071-.699-.961 0-1.713.211-2.259.631-.545.42-.929.869-1.15 1.347l-1.91-.682c.341-.796.796-1.415 1.364-1.858a5.11 5.11 0 0 1 1.875-.938 7.818 7.818 0 0 1 2.011-.272c.421 0 .904.051 1.449.153a4.64 4.64 0 0 1 1.594.605c.517.307.946.77 1.287 1.389.341.62.511 1.449.511 2.489V737h-2.011v-1.773h-.102c-.137.284-.364.588-.682.912-.318.324-.742.6-1.27.827-.528.227-1.173.341-1.935.341Zm.307-1.807c.796 0 1.466-.156 2.012-.469.551-.312.965-.716 1.244-1.21a3.084 3.084 0 0 0 .426-1.56v-1.841c-.085.103-.273.196-.562.282a9.83 9.83 0 0 1-.989.213c-.369.057-.73.108-1.083.153-.346.04-.627.074-.843.102a7.688 7.688 0 0 0-1.466.333c-.449.148-.813.372-1.091.673-.273.296-.409.699-.409 1.21 0 .699.258 1.228.775 1.586.523.352 1.185.528 1.986.528Zm15.058-11.591v1.705h-6.784v-1.705h6.784Zm-4.807-3.136h2.011v12.477c0 .568.083.994.247 1.278.171.279.387.466.648.563.267.091.548.136.844.136.221 0 .403-.011.545-.034l.341-.068.409 1.807a4.06 4.06 0 0 1-.571.153 4.193 4.193 0 0 1-.929.085 4.05 4.05 0 0 1-1.67-.366 3.315 3.315 0 0 1-1.347-1.116c-.352-.5-.528-1.131-.528-1.893v-13.022ZM297.325 737v-13.091h2.012V737h-2.012Zm1.023-15.273a1.43 1.43 0 0 1-1.014-.4 1.285 1.285 0 0 1-.418-.963c0-.375.139-.696.418-.963a1.43 1.43 0 0 1 1.014-.401c.392 0 .727.134 1.006.401.284.267.426.588.426.963s-.142.696-.426.963c-.279.267-.614.4-1.006.4Zm9.991 15.546c-1.182 0-2.219-.282-3.111-.844-.886-.563-1.58-1.349-2.08-2.361-.494-1.011-.741-2.193-.741-3.545 0-1.364.247-2.554.741-3.571.5-1.017 1.194-1.807 2.08-2.37.892-.562 1.929-.843 3.111-.843 1.182 0 2.216.281 3.102.843.892.563 1.585 1.353 2.08 2.37.5 1.017.75 2.207.75 3.571 0 1.352-.25 2.534-.75 3.545-.495 1.012-1.188 1.798-2.08 2.361-.886.562-1.92.844-3.102.844Zm0-1.807c.898 0 1.636-.23 2.216-.69.579-.461 1.008-1.066 1.287-1.816.278-.75.417-1.562.417-2.437 0-.875-.139-1.691-.417-2.446-.279-.756-.708-1.367-1.287-1.833-.58-.466-1.318-.699-2.216-.699-.898 0-1.637.233-2.216.699-.58.466-1.009 1.077-1.287 1.833a7.028 7.028 0 0 0-.418 2.446c0 .875.14 1.687.418 2.437.278.75.707 1.355 1.287 1.816.579.46 1.318.69 2.216.69Zm11.013-6.341V737h-2.011v-13.091h1.943v2.046h.171a3.735 3.735 0 0 1 1.397-1.603c.625-.409 1.432-.613 2.421-.613.886 0 1.662.181 2.326.545.665.358 1.182.904 1.552 1.636.369.728.554 1.648.554 2.762V737h-2.012v-8.182c0-1.028-.267-1.829-.801-2.403-.534-.58-1.267-.87-2.199-.87-.642 0-1.216.14-1.721.418-.5.278-.895.685-1.185 1.219-.29.534-.435 1.182-.435 1.943ZM338.13 737v-13.091h2.011V737h-2.011Zm1.023-15.273c-.392 0-.73-.133-1.015-.4a1.288 1.288 0 0 1-.417-.963c0-.375.139-.696.417-.963a1.434 1.434 0 0 1 1.015-.401 1.4 1.4 0 0 1 1.005.401c.284.267.427.588.427.963s-.143.696-.427.963c-.278.267-.613.4-1.005.4Zm13.945 5.114-1.807.511a3.345 3.345 0 0 0-.503-.878 2.44 2.44 0 0 0-.886-.715c-.375-.188-.855-.282-1.44-.282-.801 0-1.469.185-2.003.554-.529.364-.793.827-.793 1.389 0 .5.182.895.546 1.185.363.29.931.531 1.704.725l1.943.477c1.171.284 2.043.719 2.617 1.304.574.579.861 1.326.861 2.241 0 .75-.216 1.421-.648 2.012-.426.591-1.023 1.056-1.79 1.397-.767.341-1.659.512-2.676.512-1.335 0-2.44-.29-3.315-.87-.875-.579-1.429-1.426-1.662-2.539l1.909-.478c.182.705.525 1.233 1.031 1.586.511.352 1.179.528 2.003.528.937 0 1.682-.199 2.233-.597.557-.403.835-.886.835-1.448 0-.455-.159-.836-.477-1.143-.318-.312-.807-.545-1.466-.698l-2.182-.512c-1.199-.284-2.079-.724-2.642-1.321-.557-.602-.835-1.355-.835-2.258 0-.739.207-1.392.622-1.961.42-.568.991-1.014 1.713-1.338.727-.323 1.551-.485 2.472-.485 1.295 0 2.312.284 3.051.852.744.568 1.273 1.318 1.585 2.25Zm10.016 15.068v-18h1.944v2.08h.238c.148-.228.352-.517.614-.87.267-.358.648-.676 1.142-.954.5-.284 1.176-.426 2.028-.426 1.103 0 2.074.275 2.915.826.841.551 1.497 1.333 1.969 2.344.471 1.011.707 2.205.707 3.58 0 1.386-.236 2.588-.707 3.605-.472 1.011-1.125 1.795-1.96 2.352-.836.551-1.799.827-2.89.827-.841 0-1.514-.139-2.02-.418-.505-.284-.894-.605-1.167-.963a13.171 13.171 0 0 1-.631-.903h-.17v6.92h-2.012Zm1.978-11.454c0 .988.145 1.86.434 2.616.29.75.713 1.338 1.27 1.764.557.421 1.239.631 2.046.631.841 0 1.542-.222 2.105-.665.568-.449.994-1.051 1.278-1.807.29-.761.435-1.608.435-2.539 0-.921-.142-1.75-.426-2.489-.279-.744-.702-1.332-1.27-1.764-.563-.438-1.27-.657-2.122-.657-.819 0-1.506.208-2.063.623-.557.409-.977.983-1.261 1.721-.284.733-.426 1.588-.426 2.566ZM377.739 737v-13.091h1.944v1.977h.136c.239-.647.67-1.173 1.295-1.576a3.81 3.81 0 0 1 2.114-.605c.148 0 .332.002.554.008.222.006.389.014.503.026v2.045a5.92 5.92 0 0 0-.469-.077 4.698 4.698 0 0 0-.758-.059c-.637 0-1.205.133-1.705.4a3.03 3.03 0 0 0-1.176 1.091 2.94 2.94 0 0 0-.426 1.577V737h-2.012Zm13.85.273c-1.182 0-2.219-.282-3.111-.844-.886-.563-1.58-1.349-2.08-2.361-.494-1.011-.741-2.193-.741-3.545 0-1.364.247-2.554.741-3.571.5-1.017 1.194-1.807 2.08-2.37.892-.562 1.929-.843 3.111-.843 1.182 0 2.216.281 3.102.843.892.563 1.585 1.353 2.08 2.37.5 1.017.75 2.207.75 3.571 0 1.352-.25 2.534-.75 3.545-.495 1.012-1.188 1.798-2.08 2.361-.886.562-1.92.844-3.102.844Zm0-1.807c.898 0 1.636-.23 2.216-.69.579-.461 1.008-1.066 1.287-1.816.278-.75.417-1.562.417-2.437 0-.875-.139-1.691-.417-2.446-.279-.756-.708-1.367-1.287-1.833-.58-.466-1.318-.699-2.216-.699-.898 0-1.637.233-2.216.699-.58.466-1.009 1.077-1.287 1.833a7.028 7.028 0 0 0-.418 2.446c0 .875.14 1.687.418 2.437.278.75.707 1.355 1.287 1.816.579.46 1.318.69 2.216.69Zm19.238-11.557L405.986 737h-2.046l-4.841-13.091h2.182l3.614 10.432h.136l3.614-10.432h2.182ZM413.482 737v-13.091h2.011V737h-2.011Zm1.022-15.273a1.43 1.43 0 0 1-1.014-.4 1.289 1.289 0 0 1-.418-.963c0-.375.14-.696.418-.963a1.43 1.43 0 0 1 1.014-.401c.392 0 .728.134 1.006.401.284.267.426.588.426.963s-.142.696-.426.963a1.4 1.4 0 0 1-1.006.4Zm9.616 15.546c-1.091 0-2.054-.276-2.889-.827-.835-.557-1.489-1.341-1.96-2.352-.472-1.017-.708-2.219-.708-3.605 0-1.375.236-2.569.708-3.58.471-1.011 1.127-1.793 1.968-2.344.841-.551 1.813-.826 2.915-.826.852 0 1.526.142 2.02.426.5.278.881.596 1.142.954.267.353.474.642.622.87h.171v-6.444h2.011V737h-1.943v-2.011h-.239c-.148.238-.358.539-.63.903-.273.358-.662.679-1.168.963-.506.279-1.179.418-2.02.418Zm.273-1.807c.807 0 1.488-.21 2.045-.631.557-.426.98-1.014 1.27-1.764.29-.756.435-1.628.435-2.616 0-.978-.142-1.833-.426-2.566-.284-.738-.705-1.312-1.262-1.721-.557-.415-1.244-.623-2.062-.623-.853 0-1.563.219-2.131.657-.562.432-.986 1.02-1.27 1.764-.278.739-.417 1.568-.417 2.489 0 .931.142 1.778.426 2.539.289.756.716 1.358 1.278 1.807.568.443 1.273.665 2.114.665Zm15.179 1.807c-1.262 0-2.35-.279-3.264-.835-.91-.563-1.611-1.347-2.106-2.353-.488-1.011-.733-2.187-.733-3.528 0-1.341.245-2.523.733-3.546.495-1.028 1.182-1.829 2.063-2.403.886-.58 1.92-.869 3.102-.869.682 0 1.355.113 2.02.341.665.227 1.27.596 1.815 1.108.546.505.981 1.176 1.304 2.011.324.835.486 1.863.486 3.085v.852h-10.091v-1.738h8.046c0-.739-.148-1.398-.443-1.978a3.349 3.349 0 0 0-1.245-1.372c-.534-.335-1.165-.503-1.892-.503-.801 0-1.494.199-2.079.597a3.914 3.914 0 0 0-1.338 1.534 4.503 4.503 0 0 0-.469 2.029v1.159c0 .988.17 1.826.511 2.514.347.682.827 1.202 1.441 1.56.613.352 1.326.528 2.139.528.528 0 1.005-.074 1.432-.222.431-.153.804-.38 1.116-.682.313-.306.554-.687.724-1.142l1.944.546a4.317 4.317 0 0 1-1.032 1.739 5.038 5.038 0 0 1-1.789 1.159c-.711.272-1.509.409-2.395.409Zm13.423 0c-1.091 0-2.054-.276-2.889-.827-.835-.557-1.489-1.341-1.96-2.352-.472-1.017-.708-2.219-.708-3.605 0-1.375.236-2.569.708-3.58.471-1.011 1.127-1.793 1.968-2.344.841-.551 1.813-.826 2.915-.826.852 0 1.526.142 2.02.426.5.278.881.596 1.142.954.267.353.474.642.622.87h.171v-6.444h2.011V737h-1.943v-2.011h-.239c-.148.238-.358.539-.63.903-.273.358-.662.679-1.168.963-.506.279-1.179.418-2.02.418Zm.273-1.807c.807 0 1.488-.21 2.045-.631.557-.426.98-1.014 1.27-1.764.29-.756.435-1.628.435-2.616 0-.978-.142-1.833-.426-2.566-.284-.738-.705-1.312-1.262-1.721-.557-.415-1.244-.623-2.062-.623-.853 0-1.563.219-2.131.657-.562.432-.986 1.02-1.27 1.764-.278.739-.417 1.568-.417 2.489 0 .931.142 1.778.426 2.539.289.756.716 1.358 1.278 1.807.568.443 1.273.665 2.114.665Zm11.156 1.67c-.42 0-.781-.15-1.082-.451a1.474 1.474 0 0 1-.452-1.083c0-.42.15-.781.452-1.082a1.477 1.477 0 0 1 1.082-.452c.42 0 .781.151 1.082.452.302.301.452.662.452 1.082 0 .279-.071.534-.213.767a1.589 1.589 0 0 1-.554.563 1.464 1.464 0 0 1-.767.204Zm6.609 0c-.42 0-.781-.15-1.082-.451a1.478 1.478 0 0 1-.452-1.083c0-.42.151-.781.452-1.082a1.477 1.477 0 0 1 1.082-.452c.421 0 .782.151 1.083.452.301.301.451.662.451 1.082 0 .279-.071.534-.213.767a1.589 1.589 0 0 1-.554.563 1.464 1.464 0 0 1-.767.204Zm6.61 0c-.421 0-.781-.15-1.083-.451a1.477 1.477 0 0 1-.451-1.083c0-.42.15-.781.451-1.082a1.48 1.48 0 0 1 1.083-.452c.42 0 .781.151 1.082.452.301.301.452.662.452 1.082 0 .279-.071.534-.213.767a1.597 1.597 0 0 1-.554.563 1.464 1.464 0 0 1-.767.204Z"/><path fill="#D9D9D9" d="M32 762h48v48H32z"/><path fill="#555" d="M37.65 780.21v-.869l3.835-6.068h.63v1.346h-.425l-2.898 4.586v.068h5.165v.937H37.65Zm4.108 1.79v-8.727h1.006V782h-1.006Zm6.591.119c-.585 0-1.102-.103-1.55-.311a2.536 2.536 0 0 1-1.045-.865 2.173 2.173 0 0 1-.37-1.261 2.32 2.32 0 0 1 .822-1.811c.258-.213.547-.348.865-.405v-.051a1.688 1.688 0 0 1-.997-.703 2.13 2.13 0 0 1-.367-1.24c-.003-.444.11-.84.337-1.189.227-.35.54-.625.937-.827.4-.202.857-.303 1.368-.303.506 0 .958.101 1.355.303.398.202.71.477.938.827.23.349.346.745.35 1.189-.003.463-.13.876-.38 1.24-.247.36-.575.595-.984.703v.051c.315.057.6.192.852.405a2.37 2.37 0 0 1 .835 1.811c-.003.471-.13.892-.383 1.261-.25.367-.598.655-1.044.865-.444.208-.956.311-1.539.311Zm0-.937c.395 0 .736-.064 1.023-.192.287-.128.508-.308.665-.541a1.46 1.46 0 0 0 .238-.818 1.571 1.571 0 0 0-.255-.874 1.725 1.725 0 0 0-.686-.596 2.153 2.153 0 0 0-.985-.218c-.372 0-.704.073-.997.218-.29.144-.518.343-.686.596a1.54 1.54 0 0 0-.243.874 1.43 1.43 0 0 0 .226.818c.156.233.38.413.669.541.29.128.634.192 1.031.192Zm0-4.142c.313 0 .59-.063.831-.188.245-.125.436-.299.575-.524.14-.224.21-.487.214-.788a1.458 1.458 0 0 0-.21-.772 1.356 1.356 0 0 0-.566-.511 1.848 1.848 0 0 0-.844-.183c-.326 0-.612.061-.856.183-.245.119-.434.29-.567.511a1.425 1.425 0 0 0-.196.772 1.46 1.46 0 0 0 .2.788c.14.225.331.399.575.524.245.125.526.188.844.188Zm9.73 3.392-4.807-4.807.648-.648 4.807 4.807-.648.648Zm-4.16 0-.647-.648 4.807-4.807.648.648-4.807 4.807Zm6.735-.222v-.869l3.835-6.068h.63v1.346h-.425l-2.898 4.586v.068h5.165v.937h-6.307Zm4.108 1.79v-8.727h1.006V782h-1.006Zm6.591.119c-.585 0-1.102-.103-1.551-.311a2.536 2.536 0 0 1-1.044-.865 2.172 2.172 0 0 1-.37-1.261 2.32 2.32 0 0 1 .822-1.811c.258-.213.547-.348.865-.405v-.051a1.688 1.688 0 0 1-.997-.703 2.13 2.13 0 0 1-.367-1.24c-.003-.444.11-.84.337-1.189.227-.35.54-.625.937-.827.4-.202.857-.303 1.368-.303.506 0 .958.101 1.355.303.398.202.71.477.938.827.23.349.346.745.35 1.189-.004.463-.13.876-.38 1.24-.247.36-.575.595-.984.703v.051c.315.057.599.192.852.405a2.37 2.37 0 0 1 .835 1.811c-.003.471-.13.892-.383 1.261-.25.367-.599.655-1.045.865-.443.208-.956.311-1.538.311Zm0-.937c.395 0 .736-.064 1.023-.192.287-.128.508-.308.665-.541a1.46 1.46 0 0 0 .238-.818 1.57 1.57 0 0 0-.255-.874 1.725 1.725 0 0 0-.686-.596 2.153 2.153 0 0 0-.985-.218c-.372 0-.704.073-.997.218-.29.144-.518.343-.686.596a1.54 1.54 0 0 0-.243.874 1.43 1.43 0 0 0 .226.818c.156.233.38.413.669.541.29.128.633.192 1.031.192Zm0-4.142c.313 0 .59-.063.831-.188.244-.125.436-.299.575-.524.14-.224.21-.487.213-.788a1.458 1.458 0 0 0-.208-.772 1.356 1.356 0 0 0-.567-.511 1.848 1.848 0 0 0-.844-.183c-.326 0-.612.061-.856.183-.245.119-.434.29-.567.511a1.425 1.425 0 0 0-.196.772 1.46 1.46 0 0 0 .2.788c.14.225.331.399.575.524.245.125.526.188.844.188ZM44.272 798v-8.727h2.949c.684 0 1.244.123 1.679.37.437.245.76.576.971.993.21.418.315.884.315 1.398 0 .514-.105.982-.315 1.402a2.341 2.341 0 0 1-.963 1.006c-.435.247-.992.37-1.67.37h-2.114v-.937h2.08c.468 0 .845-.081 1.129-.243a1.45 1.45 0 0 0 .618-.656c.13-.279.196-.592.196-.942a2.16 2.16 0 0 0-.196-.937 1.396 1.396 0 0 0-.623-.648c-.287-.159-.667-.239-1.142-.239h-1.858V798h-1.056Zm14.537-8.727V798h-1.022l-4.756-6.852h-.085V798h-1.057v-8.727h1.023l4.772 6.869h.086v-6.869h1.04ZM66.89 792a3.07 3.07 0 0 0-.37-.771 2.385 2.385 0 0 0-.541-.588 2.266 2.266 0 0 0-.707-.371 2.826 2.826 0 0 0-.87-.128 2.59 2.59 0 0 0-1.41.401c-.423.267-.76.66-1.01 1.18-.25.52-.375 1.158-.375 1.913 0 .756.126 1.394.38 1.914.252.52.594.913 1.026 1.18.432.267.918.401 1.457.401.5 0 .94-.107 1.322-.32.383-.216.681-.52.894-.912.216-.395.324-.859.324-1.393l.324.068h-2.625v-.938h3.324v.938c0 .719-.153 1.344-.46 1.875a3.184 3.184 0 0 1-1.262 1.236c-.534.289-1.147.434-1.84.434-.773 0-1.452-.181-2.038-.545-.582-.364-1.036-.881-1.363-1.551-.324-.671-.486-1.466-.486-2.387 0-.69.092-1.311.277-1.862a4.134 4.134 0 0 1 .793-1.415c.34-.389.744-.687 1.21-.895a3.747 3.747 0 0 1 1.538-.311c.46 0 .89.07 1.287.209a3.463 3.463 0 0 1 1.858 1.483c.21.347.355.732.435 1.155H66.89Z"/><path fill="#000" d="M97.16 778.92v-1.875h13.09v1.875h-5.489v15.58h-2.113v-15.58h-5.489Zm18.091 7.705v7.875h-2.012v-17.455h2.012v6.41h.17a3.692 3.692 0 0 1 1.381-1.611c.619-.404 1.443-.605 2.471-.605.892 0 1.674.179 2.344.537.671.352 1.191.894 1.56 1.627.375.728.562 1.654.562 2.779v8.318h-2.011v-8.182c0-1.04-.27-1.844-.81-2.412-.534-.574-1.275-.861-2.224-.861-.659 0-1.25.14-1.773.418a3.05 3.05 0 0 0-1.227 1.219c-.296.534-.443 1.182-.443 1.943Zm17.657 8.148c-1.262 0-2.35-.279-3.265-.835-.909-.563-1.61-1.347-2.105-2.353-.488-1.011-.733-2.187-.733-3.528 0-1.341.245-2.523.733-3.546.495-1.028 1.182-1.829 2.063-2.403.886-.58 1.92-.869 3.102-.869.682 0 1.355.113 2.02.341.665.227 1.27.596 1.815 1.108.546.505.98 1.176 1.304 2.011.324.835.486 1.863.486 3.085v.852h-10.091v-1.738h8.046c0-.739-.148-1.398-.444-1.978a3.34 3.34 0 0 0-1.244-1.372c-.534-.335-1.165-.503-1.892-.503-.801 0-1.494.199-2.079.597a3.914 3.914 0 0 0-1.338 1.534 4.503 4.503 0 0 0-.469 2.029v1.159c0 .988.17 1.826.511 2.514.347.682.827 1.202 1.44 1.56.614.352 1.327.528 2.14.528.528 0 1.005-.074 1.431-.222.432-.153.804-.38 1.117-.682.312-.306.554-.687.724-1.142l1.944.546a4.317 4.317 0 0 1-1.032 1.739 5.038 5.038 0 0 1-1.789 1.159c-.711.272-1.509.409-2.395.409Zm16.218-.273h-2.215l6.409-17.455h2.181l6.41 17.455h-2.216l-5.216-14.693h-.137l-5.216 14.693Zm.819-6.818h8.931v1.875h-8.931v-1.875Zm22.662 1.466v-7.739h2.011V794.5h-2.011v-2.216h-.137c-.307.665-.784 1.23-1.432 1.696-.647.46-1.466.69-2.454.69-.818 0-1.546-.179-2.182-.536-.636-.364-1.136-.91-1.5-1.637-.364-.733-.545-1.656-.545-2.77v-8.318h2.011v8.182c0 .954.267 1.716.801 2.284.54.568 1.227.852 2.063.852.5 0 1.008-.128 1.525-.383.523-.256.96-.648 1.313-1.176.358-.529.537-1.202.537-2.02Zm11.388-7.739v1.705h-6.784v-1.705h6.784Zm-4.807-3.136h2.012v12.477c0 .568.082.994.247 1.278.17.279.386.466.647.563.268.091.549.136.844.136.222 0 .404-.011.546-.034l.341-.068.409 1.807a4.14 4.14 0 0 1-.571.153 4.2 4.2 0 0 1-.929.085 4.054 4.054 0 0 1-1.671-.366 3.312 3.312 0 0 1-1.346-1.116c-.353-.5-.529-1.131-.529-1.893v-13.022Zm10.125 8.352v7.875h-2.011v-17.455h2.011v6.41h.171a3.69 3.69 0 0 1 1.38-1.611c.62-.404 1.444-.605 2.472-.605.892 0 1.673.179 2.344.537.67.352 1.19.894 1.559 1.627.375.728.563 1.654.563 2.779v8.318h-2.012v-8.182c0-1.04-.269-1.844-.809-2.412-.534-.574-1.276-.861-2.225-.861-.659 0-1.25.14-1.772.418a3.058 3.058 0 0 0-1.228 1.219c-.295.534-.443 1.182-.443 1.943Zm17.487 8.148c-1.182 0-2.219-.282-3.111-.844-.886-.563-1.58-1.349-2.08-2.361-.494-1.011-.741-2.193-.741-3.545 0-1.364.247-2.554.741-3.571.5-1.017 1.194-1.807 2.08-2.37.892-.562 1.929-.843 3.111-.843 1.182 0 2.216.281 3.102.843.892.563 1.585 1.353 2.08 2.37.5 1.017.75 2.207.75 3.571 0 1.352-.25 2.534-.75 3.545-.495 1.012-1.188 1.798-2.08 2.361-.886.562-1.92.844-3.102.844Zm0-1.807c.897 0 1.636-.23 2.216-.69.579-.461 1.008-1.066 1.287-1.816.278-.75.417-1.562.417-2.437 0-.875-.139-1.691-.417-2.446-.279-.756-.708-1.367-1.287-1.833-.58-.466-1.319-.699-2.216-.699-.898 0-1.637.233-2.216.699-.58.466-1.009 1.077-1.287 1.833a7.005 7.005 0 0 0-.418 2.446c0 .875.139 1.687.418 2.437.278.75.707 1.355 1.287 1.816.579.46 1.318.69 2.216.69Zm9.002 1.534v-13.091h1.943v1.977h.136c.239-.647.671-1.173 1.296-1.576a3.806 3.806 0 0 1 2.113-.605c.148 0 .333.002.554.008.222.006.39.014.503.026v2.045a5.863 5.863 0 0 0-.468-.077 4.71 4.71 0 0 0-.759-.059c-.636 0-1.205.133-1.705.4a3.03 3.03 0 0 0-1.176 1.091 2.94 2.94 0 0 0-.426 1.577v8.284h-2.011Z"/><g clip-path="url(#b)"><path fill="#fff" d="M32 826h186v24H32z"/><path stroke="#000" stroke-linecap="round" stroke-linejoin="round" stroke-width="2" d="m45 832 2-2c1-1 3-1 4 0l1 1c1 1 1 3 0 4l-5 5c-1 1-3 1-4 0m0 4-2 2c-1 1-3 1-4 0l-1-1c-1-1-1-3 0-4l5-5c1-1 3-1 4 0"/><path fill="#000" d="M66.568 838.25v5.25h-1.34v-11.636h1.34v4.272h.114c.204-.45.511-.808.92-1.074.413-.268.962-.403 1.648-.403.595 0 1.115.119 1.563.358.447.235.793.597 1.04 1.085.25.485.374 1.103.374 1.853v5.545h-1.34v-5.455c0-.693-.18-1.229-.54-1.607-.356-.383-.85-.574-1.483-.574-.44 0-.834.092-1.182.278a2.033 2.033 0 0 0-.818.813c-.197.356-.296.787-.296 1.295Zm11.908-3.477v1.136h-4.523v-1.136h4.523Zm-3.205-2.091h1.341V841c0 .379.055.663.165.852a.85.85 0 0 0 .432.375c.178.061.365.091.562.091.148 0 .27-.007.364-.023l.227-.045.273 1.205c-.091.034-.218.068-.38.102-.164.038-.37.057-.62.057-.379 0-.75-.082-1.114-.245a2.215 2.215 0 0 1-.897-.744c-.235-.333-.353-.754-.353-1.261v-8.682Zm9.017 2.091v1.136h-4.522v-1.136h4.522Zm-3.204-2.091h1.34V841c0 .379.056.663.165.852a.85.85 0 0 0 .432.375c.178.061.366.091.563.091.147 0 .269-.007.363-.023l.228-.045.272 1.205c-.09.034-.217.068-.38.102-.163.038-.37.057-.62.057-.378 0-.75-.082-1.113-.245a2.215 2.215 0 0 1-.898-.744c-.235-.333-.352-.754-.352-1.261v-8.682Zm5.221 14.091v-12h1.296v1.386h.159c.098-.151.235-.345.409-.579.178-.239.432-.451.761-.637.334-.189.784-.284 1.353-.284.734 0 1.382.184 1.943.551.56.368.998.888 1.312 1.563.315.674.472 1.469.472 2.386 0 .924-.157 1.725-.472 2.403-.314.675-.75 1.197-1.306 1.569-.557.367-1.2.551-1.927.551-.56 0-1.01-.093-1.346-.279-.337-.189-.597-.403-.779-.642a8.54 8.54 0 0 1-.42-.602h-.114v4.614h-1.34Zm1.319-7.637c0 .659.096 1.241.29 1.745.192.5.475.892.846 1.176.371.28.826.42 1.364.42.56 0 1.028-.147 1.403-.443.379-.299.663-.701.852-1.204.193-.508.29-1.072.29-1.694 0-.613-.095-1.166-.284-1.659-.186-.496-.468-.888-.847-1.176-.375-.292-.846-.437-1.414-.437-.546 0-1.004.138-1.375.414-.372.273-.652.656-.841 1.148-.19.489-.284 1.059-.284 1.71Zm14.613-2.409-1.204.341a2.229 2.229 0 0 0-.336-.585 1.617 1.617 0 0 0-.59-.477c-.25-.125-.57-.188-.96-.188-.535 0-.98.123-1.336.37-.352.242-.528.551-.528.926 0 .333.12.596.363.789.243.194.621.355 1.137.483l1.295.319c.78.189 1.362.479 1.744.869.383.386.574.884.574 1.494 0 .5-.144.947-.432 1.341-.284.394-.681.705-1.193.932-.511.227-1.106.341-1.784.341-.89 0-1.627-.193-2.21-.58-.583-.386-.953-.95-1.108-1.693l1.273-.318c.121.47.35.822.687 1.057.341.235.786.352 1.335.352.626 0 1.122-.133 1.489-.398.371-.269.557-.591.557-.966 0-.303-.106-.556-.318-.761-.212-.208-.538-.364-.977-.466l-1.455-.341c-.8-.189-1.386-.483-1.761-.88-.372-.402-.557-.904-.557-1.506 0-.493.138-.928.415-1.307.28-.379.66-.676 1.142-.892.484-.216 1.034-.324 1.647-.324.864 0 1.542.189 2.034.568.497.379.849.879 1.057 1.5Zm3.155 6.864c-.28 0-.521-.1-.722-.301a.989.989 0 0 1-.301-.722c0-.28.101-.521.301-.721a.986.986 0 0 1 .722-.302c.28 0 .521.101.722.302.2.2.301.441.301.721a.973.973 0 0 1-.142.512c-.091.155-.214.28-.37.375a.981.981 0 0 1-.511.136Zm0-6.477a.986.986 0 0 1-.722-.302.985.985 0 0 1-.301-.721c0-.28.101-.521.301-.722a.989.989 0 0 1 .722-.301c.28 0 .521.101.722.301.2.201.301.442.301.722a.967.967 0 0 1-.142.511 1.047 1.047 0 0 1-.37.375.973.973 0 0 1-.511.137Zm7.543-5.796-3.75 13.932h-1.228l3.75-13.932h1.228Zm5.703 0-3.75 13.932h-1.227l3.75-13.932h1.227Zm5.476 3.455v1.136h-4.705v-1.136h4.705Zm-3.296 8.727v-9.932c0-.5.118-.916.352-1.25a2.19 2.19 0 0 1 .915-.75c.375-.166.771-.25 1.188-.25.329 0 .598.027.807.08.208.053.363.102.465.147l-.386 1.16a5.962 5.962 0 0 0-.284-.086 1.726 1.726 0 0 0-.466-.051c-.443 0-.763.112-.96.335-.193.224-.29.552-.29.983v9.614h-1.341Zm8.361.182c-.788 0-1.479-.188-2.074-.563-.591-.375-1.053-.899-1.386-1.574-.33-.674-.495-1.462-.495-2.363 0-.909.165-1.703.495-2.381.333-.678.795-1.204 1.386-1.579.595-.375 1.286-.563 2.074-.563.788 0 1.477.188 2.068.563.595.375 1.057.901 1.387 1.579.333.678.5 1.472.5 2.381 0 .901-.167 1.689-.5 2.363-.33.675-.792 1.199-1.387 1.574-.591.375-1.28.563-2.068.563Zm0-1.205c.598 0 1.091-.153 1.477-.46.387-.307.673-.71.858-1.21.186-.5.279-1.042.279-1.625 0-.584-.093-1.127-.279-1.631a2.732 2.732 0 0 0-.858-1.221c-.386-.311-.879-.466-1.477-.466-.599 0-1.091.155-1.477.466-.387.31-.673.717-.858 1.221a4.672 4.672 0 0 0-.279 1.631c0 .583.093 1.125.279 1.625.185.5.471.903.858 1.21.386.307.878.46 1.477.46Zm9.547 1.205c-.788 0-1.479-.188-2.074-.563-.591-.375-1.053-.899-1.386-1.574-.33-.674-.495-1.462-.495-2.363 0-.909.165-1.703.495-2.381.333-.678.795-1.204 1.386-1.579.595-.375 1.286-.563 2.074-.563.788 0 1.477.188 2.068.563.595.375 1.057.901 1.386 1.579.334.678.5 1.472.5 2.381 0 .901-.166 1.689-.5 2.363a3.758 3.758 0 0 1-1.386 1.574c-.591.375-1.28.563-2.068.563Zm0-1.205c.598 0 1.091-.153 1.477-.46a2.72 2.72 0 0 0 .858-1.21c.186-.5.278-1.042.278-1.625 0-.584-.092-1.127-.278-1.631a2.748 2.748 0 0 0-.858-1.221c-.386-.311-.879-.466-1.477-.466-.599 0-1.091.155-1.477.466-.387.31-.673.717-.858 1.221a4.672 4.672 0 0 0-.279 1.631c0 .583.093 1.125.279 1.625.185.5.471.903.858 1.21.386.307.878.46 1.477.46Zm6.979 1.114a.983.983 0 0 1-.722-.301.985.985 0 0 1-.301-.722c0-.28.1-.521.301-.721a.984.984 0 0 1 .722-.302c.28 0 .52.101.721.302.201.2.301.441.301.721a.964.964 0 0 1-.142.512c-.091.155-.214.28-.369.375a.984.984 0 0 1-.511.136Zm7.088.091c-.841 0-1.567-.186-2.177-.557a3.742 3.742 0 0 1-1.403-1.568c-.326-.674-.489-1.459-.489-2.352 0-.894.163-1.682.489-2.364.33-.686.788-1.22 1.375-1.602.591-.387 1.28-.58 2.068-.58.455 0 .904.076 1.347.227.443.152.846.398 1.21.739.364.337.653.784.869 1.341.216.557.324 1.242.324 2.057v.568h-6.727v-1.159h5.364c0-.493-.099-.932-.296-1.318a2.223 2.223 0 0 0-.829-.915c-.356-.224-.777-.335-1.262-.335-.534 0-.996.132-1.386.397a2.625 2.625 0 0 0-.892 1.023 3.01 3.01 0 0 0-.313 1.352v.773c0 .659.114 1.218.341 1.676.231.455.551.801.96 1.04.41.235.885.352 1.427.352.352 0 .67-.049.954-.147.288-.103.536-.254.744-.455.209-.205.37-.458.483-.761l1.296.363c-.136.44-.366.826-.688 1.159-.322.33-.719.587-1.193.773a4.416 4.416 0 0 1-1.596.273Zm6.419-8.909 2.091 3.568 2.09-3.568h1.546l-2.818 4.363 2.818 4.364h-1.546l-2.09-3.386-2.091 3.386h-1.546l2.773-4.364-2.773-4.363h1.546Zm10.208 8.932a3.55 3.55 0 0 1-1.505-.313 2.58 2.58 0 0 1-1.074-.915c-.265-.401-.398-.886-.398-1.454 0-.5.099-.906.296-1.216.197-.315.46-.561.789-.739a4.2 4.2 0 0 1 1.091-.398c.402-.09.805-.162 1.211-.215.53-.069.96-.12 1.289-.154.334-.038.576-.1.728-.187.155-.087.233-.239.233-.455v-.045c0-.561-.154-.997-.461-1.307-.303-.311-.763-.466-1.38-.466-.641 0-1.142.14-1.506.42-.364.281-.619.58-.767.898l-1.273-.454c.227-.531.53-.944.909-1.239.383-.299.8-.508 1.25-.625a5.205 5.205 0 0 1 1.341-.182c.28 0 .602.034.966.102.368.065.722.199 1.063.404.344.204.63.513.858.926.227.413.34.966.34 1.659v5.75h-1.34v-1.182h-.069c-.091.19-.242.392-.454.608-.212.216-.494.4-.847.551-.352.152-.782.228-1.29.228Zm.205-1.205c.53 0 .977-.104 1.341-.312a2.133 2.133 0 0 0 1.114-1.847v-1.227c-.057.068-.182.13-.375.187-.19.053-.41.101-.66.142a27.7 27.7 0 0 1-.721.102c-.231.027-.419.05-.563.069a5.114 5.114 0 0 0-.977.221 1.684 1.684 0 0 0-.727.449c-.182.197-.273.466-.273.807 0 .466.172.818.517 1.057.349.235.79.352 1.324.352Zm6.243 1v-8.727h1.295v1.363h.114c.182-.466.475-.827.881-1.085.405-.261.892-.392 1.46-.392.576 0 1.055.131 1.437.392.387.258.688.619.904 1.085h.091c.223-.45.558-.808 1.005-1.074.447-.268.983-.403 1.608-.403.781 0 1.419.244 1.915.733.496.485.744 1.241.744 2.267v5.841h-1.34v-5.841c0-.644-.177-1.104-.529-1.381a1.957 1.957 0 0 0-1.244-.414c-.614 0-1.089.185-1.426.556-.337.368-.506.834-.506 1.398v5.682h-1.364v-5.977c0-.496-.161-.896-.483-1.199-.322-.307-.736-.46-1.244-.46-.348 0-.674.092-.977.278a2.1 2.1 0 0 0-.727.773 2.277 2.277 0 0 0-.273 1.13v5.455h-1.341Zm13.906 3.273v-12h1.296v1.386h.159c.098-.151.235-.345.409-.579.178-.239.432-.451.761-.637.333-.189.784-.284 1.352-.284.735 0 1.383.184 1.944.551.56.368.998.888 1.312 1.563.314.674.472 1.469.472 2.386 0 .924-.158 1.725-.472 2.403-.314.675-.75 1.197-1.307 1.569-.557.367-1.199.551-1.926.551-.56 0-1.009-.093-1.346-.279-.338-.189-.597-.403-.779-.642a8.279 8.279 0 0 1-.42-.602h-.114v4.614h-1.341Zm1.318-7.637c0 .659.097 1.241.29 1.745.193.5.475.892.847 1.176.371.28.825.42 1.363.42.561 0 1.029-.147 1.404-.443.379-.299.663-.701.852-1.204.193-.508.29-1.072.29-1.694 0-.613-.095-1.166-.284-1.659-.186-.496-.468-.888-.847-1.176-.375-.292-.846-.437-1.415-.437-.545 0-1.003.138-1.375.414-.371.273-.651.656-.841 1.148-.189.489-.284 1.059-.284 1.71Zm9.773-7.272V843.5h-1.341v-11.636h1.341Zm6.115 11.818c-.841 0-1.566-.186-2.176-.557a3.736 3.736 0 0 1-1.403-1.568c-.326-.674-.489-1.459-.489-2.352 0-.894.163-1.682.489-2.364.329-.686.787-1.22 1.375-1.602.59-.387 1.28-.58 2.068-.58.454 0 .903.076 1.346.227.444.152.847.398 1.211.739.363.337.653.784.869 1.341.216.557.324 1.242.324 2.057v.568h-6.728v-1.159h5.364c0-.493-.098-.932-.295-1.318a2.226 2.226 0 0 0-.83-.915c-.356-.224-.776-.335-1.261-.335-.534 0-.996.132-1.387.397a2.633 2.633 0 0 0-.892 1.023 3.01 3.01 0 0 0-.312 1.352v.773c0 .659.113 1.218.341 1.676.231.455.551.801.96 1.04.409.235.884.352 1.426.352.352 0 .671-.049.955-.147.288-.103.536-.254.744-.455.208-.205.369-.458.483-.761l1.295.363a2.86 2.86 0 0 1-.687 1.159c-.322.33-.72.587-1.193.773a4.425 4.425 0 0 1-1.597.273Zm9.767-12.364-3.75 13.932h-1.227l3.75-13.932h1.227Z"/></g><g fill="#000" clip-path="url(#c)"><path d="M37 887c-.55 0-1.02-.196-1.412-.587A1.929 1.929 0 0 1 35 885v-14c0-.55.196-1.021.588-1.412A1.933 1.933 0 0 1 37 869h14c.55 0 1.021.196 1.413.588.392.392.588.863.587 1.412v14c0 .55-.196 1.021-.587 1.413A1.92 1.92 0 0 1 51 887H37Zm2-4h7v-2h-7v2Zm0-4h10v-2H39v2Zm0-4h10v-2H39v2ZM65.902 884h-1.477l4.272-11.636h1.455L74.425 884h-1.478l-3.477-9.795h-.09L65.901 884Zm.545-4.545h5.955v1.25h-5.955v-1.25ZM76.055 884v-8.727h1.296v1.318h.09c.16-.432.448-.782.864-1.051a2.542 2.542 0 0 1 1.41-.404c.098 0 .221.002.369.006.147.004.26.01.335.017v1.364a3.406 3.406 0 0 0-.313-.051 3.022 3.022 0 0 0-.505-.04c-.424 0-.803.089-1.136.267-.33.174-.591.417-.785.727a1.96 1.96 0 0 0-.284 1.051V884h-1.34Zm10.296-8.727v1.136h-4.523v-1.136h4.523Zm-3.205-2.091h1.341v8.318c0 .379.055.663.165.852a.85.85 0 0 0 .432.375c.178.061.365.091.562.091.148 0 .27-.007.364-.023l.227-.045.273 1.205c-.091.034-.218.068-.38.102-.164.038-.37.057-.62.057-.379 0-.75-.082-1.114-.245a2.215 2.215 0 0 1-.897-.744c-.235-.333-.353-.754-.353-1.261v-8.682ZM88.368 884v-8.727h1.34V884h-1.34Zm.682-10.182a.954.954 0 0 1-.676-.267.858.858 0 0 1-.279-.642c0-.25.093-.464.279-.642a.954.954 0 0 1 .676-.267c.261 0 .485.089.67.267a.85.85 0 0 1 .284.642.85.85 0 0 1-.284.642.934.934 0 0 1-.67.267Zm6.66 10.364c-.818 0-1.522-.193-2.113-.58a3.773 3.773 0 0 1-1.364-1.596c-.318-.678-.477-1.453-.477-2.324 0-.887.163-1.669.488-2.347.33-.682.788-1.214 1.375-1.596.591-.387 1.28-.58 2.069-.58.613 0 1.166.114 1.659.341.492.227.895.545 1.21.955.314.409.51.886.585 1.431h-1.34c-.103-.397-.33-.75-.683-1.056-.348-.311-.818-.466-1.409-.466-.522 0-.98.136-1.375.409-.39.269-.695.649-.914 1.142-.217.488-.324 1.062-.324 1.721 0 .675.106 1.262.318 1.762.216.5.519.888.909 1.164.394.277.856.415 1.386.415.349 0 .665-.06.95-.182.283-.121.524-.295.72-.522.198-.228.338-.5.421-.818h1.341a3.106 3.106 0 0 1-.563 1.392 3.149 3.149 0 0 1-1.176.977c-.484.238-1.049.358-1.693.358Zm6.733-11.818V884h-1.341v-11.636h1.341Zm6.115 11.818c-.841 0-1.566-.186-2.176-.557a3.736 3.736 0 0 1-1.403-1.568c-.326-.674-.489-1.459-.489-2.352 0-.894.163-1.682.489-2.364.329-.686.788-1.22 1.375-1.602.591-.387 1.28-.58 2.068-.58.454 0 .903.076 1.346.227.444.152.847.398 1.211.739.363.337.653.784.869 1.341.216.557.324 1.242.324 2.057v.568h-6.727v-1.159h5.363c0-.493-.098-.932-.295-1.318a2.219 2.219 0 0 0-.83-.915c-.356-.224-.776-.335-1.261-.335-.534 0-.996.132-1.386.397a2.627 2.627 0 0 0-.893 1.023 3.01 3.01 0 0 0-.312 1.352v.773c0 .659.114 1.218.341 1.676.231.455.551.801.96 1.04.409.235.885.352 1.426.352.353 0 .671-.049.955-.147.288-.103.536-.254.744-.455.208-.205.369-.458.483-.761l1.296.363c-.137.44-.366.826-.688 1.159-.322.33-.72.587-1.193.773a4.425 4.425 0 0 1-1.597.273Z"/></g></g><defs><clipPath id="a"><path fill="#fff" d="M0 0h1200v914H0z"/></clipPath><clipPath id="b"><path fill="#fff" d="M32 826h186v24H32z"/></clipPath><clipPath id="c"><path fill="#fff" d="M32 866h81v24H32z"/></clipPath></defs></svg>